<svg xmlns="http://www.w3.org/2000/svg" xmlns:xlink="http://www.w3.org/1999/xlink" width="133" height="133" viewBox="0 0 133 133">
  <defs>
    <filter id="Ellipse_1" x="0" y="0" width="133" height="133" filterUnits="userSpaceOnUse">
      <feOffset input="SourceAlpha"/>
      <feGaussianBlur stdDeviation="6" result="blur"/>
      <feFlood flood-opacity="0.161"/>
      <feComposite operator="in" in2="blur"/>
      <feComposite in="SourceGraphic"/>
    </filter>
  </defs>
  <g id="Group_586" data-name="Group 586" transform="translate(-1736 -907)">
    <g transform="matrix(1, 0, 0, 1, 1736, 907)" filter="url(#Ellipse_1)">
      <circle id="Ellipse_1-2" data-name="Ellipse 1" cx="48.5" cy="48.5" r="48.5" transform="translate(18 18)" fill="#fff"/>
    </g>
    <g id="Group_5" data-name="Group 5" transform="translate(1770.437 948.369)">
      <path id="Path_1" data-name="Path 1" d="M110.177,61.764,59.258,65.729a6.25,6.25,0,0,0-6.25,6.25L56.973,96.93a6.25,6.25,0,0,0,6.25,6.25l2.4.148h0s1.426,5.38-1.371,8.178c0,0,8.334-2.015,9.679-7.667l32.279,1.985a6.25,6.25,0,0,0,6.25-6.25l3.965-31.56A6.25,6.25,0,0,0,110.177,61.764Z" transform="translate(-53.008 -61.764)" fill="#60c4ea"/>
      <path id="Path_2" data-name="Path 2" d="M116.31,70.228q-.11,2.545-.4,5.088c-.394,3.494-.919,6.982-1.538,10.442a33.951,33.951,0,0,1-2.638,9.188c-2.386,4.8-7.543,6.569-12.552,7.321-5.238.786-10.5.52-15.766.841a82.827,82.827,0,0,1-8.719.261c-2.5-.111-5.322-.324-7.534-1.616-4.275-2.5-4.964-8.7-5.548-13.108-.665-5.024-1.938-11.581,1.542-15.892,1.611-2,3.692-2.882,6.05-3.715.777-.275,1.767-.545,2.75-.892l-12.7.989a6.25,6.25,0,0,0-6.25,6.25l3.965,24.951a6.25,6.25,0,0,0,6.25,6.25l2.4.148h0s1.426,5.38-1.371,8.178c0,0,8.334-2.015,9.679-7.667l32.279,1.985a6.25,6.25,0,0,0,6.25-6.25l3.965-31.56A6.279,6.279,0,0,0,116.31,70.228Z" transform="translate(-53.008 -65.17)" fill="#609fd0"/>
      <g id="Group_4" data-name="Group 4" transform="translate(12.398 15.34)">
        <path id="Path_3" data-name="Path 3" d="M118.22,95.944a1.282,1.282,0,0,1-1.282,1.282H80.88A1.282,1.282,0,0,1,79.6,95.944h0a1.283,1.283,0,0,1,1.282-1.282h36.058a1.282,1.282,0,0,1,1.282,1.282Z" transform="translate(-79.598 -94.662)" fill="#fff"/>
        <path id="Path_4" data-name="Path 4" d="M118.22,107.542a1.282,1.282,0,0,1-1.282,1.282H80.88a1.283,1.283,0,0,1-1.282-1.282h0a1.282,1.282,0,0,1,1.282-1.282h36.058a1.282,1.282,0,0,1,1.282,1.282Z" transform="translate(-79.598 -100.852)" fill="#fff"/>
        <path id="Path_5" data-name="Path 5" d="M118.22,119.14a1.282,1.282,0,0,1-1.282,1.282H80.88A1.282,1.282,0,0,1,79.6,119.14h0a1.283,1.283,0,0,1,1.282-1.282h36.058a1.282,1.282,0,0,1,1.282,1.282Z" transform="translate(-79.598 -107.042)" fill="#fff"/>
      </g>
    </g>
  </g>
</svg>
