<svg xmlns="http://www.w3.org/2000/svg" width="392.357" height="405.805" viewBox="0 0 392.357 405.805">
  <g id="Group_588" data-name="Group 588" transform="translate(-752.969 -3404)">
    <circle id="Ellipse_25" data-name="Ellipse 25" cx="3.069" cy="3.069" r="3.069" transform="translate(840.495 3552.711)" fill="#daf6ff"/>
    <circle id="Ellipse_27" data-name="Ellipse 27" cx="3.069" cy="3.069" r="3.069" transform="translate(874.192 3771.177)" fill="#daf6ff"/>
    <rect id="Rectangle_141" data-name="Rectangle 141" width="211.525" height="344.459" rx="9.231" transform="translate(874.192 3465.346)" opacity="0.73"/>
    <path id="Path_801" data-name="Path 801" d="M662.472,160.2a5.355,5.355,0,0,1,5.349,5.348v313.9a5.354,5.354,0,0,1-5.349,5.348H481.509a5.355,5.355,0,0,1-5.348-5.348v-313.9a5.356,5.356,0,0,1,5.348-5.348Z" transform="translate(407.963 3315.081)" fill="#f3fbff"/>
    <rect id="Rectangle_142" data-name="Rectangle 142" width="161.616" height="54.069" rx="5.228" transform="translate(899.146 3493.368)" fill="#62adfb"/>
    <rect id="Rectangle_143" data-name="Rectangle 143" width="161.616" height="54.069" rx="5.228" transform="translate(899.146 3724.837)" fill="#0d68be"/>
    <rect id="Rectangle_144" data-name="Rectangle 144" width="161.616" height="97.545" rx="5.228" transform="translate(899.146 3561.222)" fill="#0d68be"/>
    <rect id="Rectangle_145" data-name="Rectangle 145" width="34.797" height="34.797" rx="3.232" transform="translate(899.146 3675.157)" fill="#62adfb"/>
    <rect id="Rectangle_146" data-name="Rectangle 146" width="34.797" height="34.797" rx="3.232" transform="translate(941.419 3675.157)" fill="#62adfb"/>
    <rect id="Rectangle_147" data-name="Rectangle 147" width="34.797" height="34.797" rx="3.232" transform="translate(983.692 3675.157)" fill="#62adfb"/>
    <rect id="Rectangle_148" data-name="Rectangle 148" width="34.797" height="34.797" rx="3.232" transform="translate(1025.966 3675.157)" fill="#62adfb"/>
    <g id="Group_413" data-name="Group 413" transform="translate(788.341 3614.309)">
      <path id="Path_802" data-name="Path 802" d="M549.066,244.185H433.133A14.832,14.832,0,0,0,418.3,259.017h0a14.834,14.834,0,0,0,14.834,14.834H549.066A14.834,14.834,0,0,0,563.9,259.017h0A14.832,14.832,0,0,0,549.066,244.185Z" transform="translate(-418.299 -244.185)" fill="#addfff"/>
      <g id="Group_412" data-name="Group 412" transform="translate(119.82 6.183)">
        <path id="Path_803" data-name="Path 803" d="M500.348,249.579a5.661,5.661,0,1,0,0,8.005A5.661,5.661,0,0,0,500.348,249.579Z" transform="translate(-490.682 -247.92)" fill="none" stroke="#33aeff" stroke-linecap="round" stroke-miterlimit="10" stroke-width="1.129"/>
        <line id="Line_12" data-name="Line 12" x2="4.769" y2="4.769" transform="translate(9.666 9.665)" fill="none" stroke="#33aeff" stroke-linecap="round" stroke-miterlimit="10" stroke-width="1.129"/>
      </g>
    </g>
    <g id="Group_414" data-name="Group 414" transform="translate(752.969 3687.473)">
      <path id="Path_804" data-name="Path 804" d="M396.931,296.052v27.141a7.672,7.672,0,0,0,7.671,7.671h87.566c5.244,5.2,12.937,12.851,12.937,12.981V296.052a7.67,7.67,0,0,0-7.671-7.669H404.6A7.67,7.67,0,0,0,396.931,296.052Z" transform="translate(-396.931 -288.383)" fill="#33aeff"/>
      <text id="_code_" data-name="&lt;/code&gt;" transform="translate(16.127 24.212)" fill="#fff" font-size="17" font-family="Montserrat-Regular, Montserrat"><tspan x="0" y="0">&lt;/code&gt;</tspan></text>
    </g>
    <g id="Group_415" data-name="Group 415" transform="translate(1037.152 3582.262)">
      <path id="Path_805" data-name="Path 805" d="M676.778,232.5v27.141a7.672,7.672,0,0,1-7.671,7.671H581.54c-5.242,5.2-12.935,12.851-12.935,12.981V232.5a7.67,7.67,0,0,1,7.671-7.669h92.831A7.67,7.67,0,0,1,676.778,232.5Z" transform="translate(-568.605 -224.826)" fill="#33aeff"/>
      <text id="_code_2" data-name="&lt;/code&gt;" transform="translate(18.699 24.212)" fill="#fff" font-size="17" font-family="Montserrat-Regular, Montserrat"><tspan x="0" y="0">&lt;/code&gt;</tspan></text>
    </g>
    <g id="Group_417" data-name="Group 417" transform="translate(784.851 3404)">
      <g id="Path_806" data-name="Path 806" transform="translate(-416.191 -117.138)" fill="none" stroke-miterlimit="10">
        <path d="M527.48,172.783a55.649,55.649,0,1,0-86.124,46.557,8.9,8.9,0,0,1,4.109,7.418v26.756H498.2V226.753a8.884,8.884,0,0,1,4.1-7.4A55.589,55.589,0,0,0,527.48,172.783Z" stroke="none"/>
        <path d="M 471.8319702148438 117.1384735107422 L 471.8319702148438 119.1384735107422 C 470.5727844238281 119.1384735107422 469.291748046875 119.1828308105469 468.0243835449219 119.2703247070313 C 461.7060546875 119.7063293457031 455.5669555664063 121.2608947753906 449.7776184082031 123.8908233642578 C 444.1504211425781 126.4470825195313 439.0294189453125 129.9349365234375 434.5568542480469 134.2574920654297 C 430.0828247070313 138.5815277099609 426.4249877929688 143.5791473388672 423.68505859375 149.1115875244141 C 420.8643188476563 154.8069915771484 419.1111450195313 160.8878936767578 418.47412109375 167.1852111816406 C 417.9532470703125 172.3375396728516 418.15234375 177.4853210449219 419.0658569335938 182.4855651855469 C 419.9463500976563 187.3049926757813 421.4874267578125 191.9792785644531 423.6463623046875 196.3786315917969 C 427.885009765625 205.0159149169922 434.3882446289063 212.3775482177734 442.4530944824219 217.6676940917969 C 445.5912170410156 219.7261962890625 447.4647216796875 223.1243438720703 447.4647216796875 226.7577667236328 L 447.4647216796875 251.513427734375 L 496.2046508789063 251.513427734375 L 496.2046508789063 226.7527770996094 C 496.2046508789063 223.1220703125 498.0733032226563 219.7288513183594 501.2037658691406 217.6756134033203 C 508.5123291015625 212.8851013183594 514.6058349609375 206.3157653808594 518.8255615234375 198.6777648925781 C 520.9700927734375 194.7960205078125 522.62451171875 190.6568756103516 523.7427978515625 186.3752746582031 C 524.8954467773438 181.9622344970703 525.4799194335938 177.3890838623047 525.4799194335938 172.7828521728516 C 525.4799194335938 165.5405578613281 524.061767578125 158.5158233642578 521.2647705078125 151.9037780761719 C 519.92041015625 148.7257232666016 518.2564086914063 145.6602783203125 516.3189697265625 142.7926025390625 C 514.3995361328125 139.9517211914063 512.1951904296875 137.2801513671875 509.76708984375 134.8521270751953 C 507.3390197753906 132.4241333007813 504.6673889160156 130.2198181152344 501.8263854980469 128.3004150390625 C 498.9586791992188 126.3629760742188 495.8932189941406 124.6989288330078 492.715087890625 123.3545227050781 C 486.1031188964844 120.5575408935547 479.0785522460938 119.1390380859375 471.8365173339844 119.1384735107422 L 471.8319702148438 117.1384735107422 M 471.836669921875 117.1384735107422 C 502.5646057128906 117.1408996582031 527.4799194335938 142.0530242919922 527.4799194335938 172.7828521728516 C 527.4799194335938 192.2664794921875 517.4631958007813 209.4095153808594 502.3001708984375 219.3482971191406 C 499.7839050292969 220.9986877441406 498.2046508789063 223.7449798583984 498.2046508789063 226.7527770996094 L 498.2046508789063 253.513427734375 L 445.4647216796875 253.513427734375 L 445.4647216796875 226.7577667236328 C 445.4647216796875 223.7416687011719 443.8771667480469 220.9937438964844 441.3561096191406 219.3400268554688 C 424.7130126953125 208.4229125976563 414.2759399414063 188.8283233642578 416.4842529296875 166.9840698242188 C 419.182373046875 140.3111572265625 441.1392517089844 119.1208190917969 467.8866882324219 117.2750701904297 C 469.2144165039063 117.1834106445313 470.528564453125 117.1383666992188 471.836669921875 117.1384735107422 Z" stroke="none" fill="#33aeff"/>
      </g>
      <g id="Group_416" data-name="Group 416" transform="translate(35.528 79.654)">
        <line id="Line_13" data-name="Line 13" x1="9.894" y1="49.426" fill="none" stroke="#33aeff" stroke-linecap="round" stroke-miterlimit="10" stroke-width="2"/>
        <line id="Line_14" data-name="Line 14" y1="49.426" x2="9.894" transform="translate(30.339)" fill="none" stroke="#33aeff" stroke-linecap="round" stroke-miterlimit="10" stroke-width="2"/>
      </g>
      <path id="Path_807" data-name="Path 807" d="M433.875,176.448s14.042,1.031,17.289-3.688,4.8-14.105-1.141-14.428-4.17,18.211,8.22,18.211,17.7-18.214,11.063-18.214-6.845,18.214,3.879,18.214,13.529-1.275,13.529-1.275" transform="translate(-404.601 -90.145)" fill="none" stroke="#33aeff" stroke-linecap="round" stroke-miterlimit="10" stroke-width="2"/>
      <path id="Path_808" data-name="Path 808" d="M455.94,239.638h0A14.542,14.542,0,0,1,441.4,225.094V195.665h29.086v29.429A14.543,14.543,0,0,1,455.94,239.638Z" transform="translate(-399.67 -65.675)" fill="#0d68be"/>
      <path id="Path_809" data-name="Path 809" d="M460.295,235.317h0a26.419,26.419,0,0,1-26.42-26.42V191.344h52.839V208.9A26.42,26.42,0,0,1,460.295,235.317Z" transform="translate(-404.601 -68.507)" fill="#addfff"/>
      <line id="Line_15" data-name="Line 15" x2="49.661" transform="translate(30.927 133.691)" fill="none" stroke="#33aeff" stroke-linecap="round" stroke-miterlimit="10" stroke-width="2"/>
      <line id="Line_16" data-name="Line 16" x2="43.148" transform="translate(34.119 151.977)" fill="none" stroke="#33aeff" stroke-linecap="round" stroke-miterlimit="10" stroke-width="2"/>
    </g>
  </g>
</svg>
