<svg xmlns="http://www.w3.org/2000/svg" width="527.731" height="284.345" viewBox="0 0 527.731 284.345">
  <g id="Group_390" data-name="Group 390" opacity="0.85">
    <g id="Group_309" data-name="Group 309" transform="translate(114.375 0)">
      <rect id="Rectangle_19" data-name="Rectangle 19" width="398.788" height="273.635" rx="7.633" fill="#78d5e4"/>
    </g>
    <g id="Group_310" data-name="Group 310" transform="translate(127.88 9.267)">
      <rect id="Rectangle_20" data-name="Rectangle 20" width="371.777" height="255.101" rx="7.633" fill="#2f518e"/>
    </g>
    <g id="Group_365" data-name="Group 365" transform="translate(149.905 35.059)">
      <g id="Group_311" data-name="Group 311" transform="translate(35.992)">
        <rect id="Rectangle_21" data-name="Rectangle 21" width="48.857" height="5.419" fill="#fdfefe"/>
      </g>
      <g id="Group_312" data-name="Group 312" transform="translate(35.992 12.14)">
        <rect id="Rectangle_22" data-name="Rectangle 22" width="31.131" height="5.419" fill="#fdfefe"/>
      </g>
      <g id="Group_313" data-name="Group 313" transform="translate(84.553 12.14)">
        <rect id="Rectangle_23" data-name="Rectangle 23" width="125.186" height="5.419" fill="#fdfefe"/>
      </g>
      <g id="Group_314" data-name="Group 314" transform="translate(221.879 12.14)">
        <rect id="Rectangle_24" data-name="Rectangle 24" width="65.557" height="5.419" fill="#fc6454"/>
      </g>
      <g id="Group_315" data-name="Group 315" transform="translate(48.133 24.281)">
        <rect id="Rectangle_25" data-name="Rectangle 25" width="79.052" height="5.419" fill="#58d05b"/>
      </g>
      <g id="Group_316" data-name="Group 316" transform="translate(151.466 24.281)">
        <rect id="Rectangle_26" data-name="Rectangle 26" width="117.783" height="5.419" fill="#fdfefe"/>
      </g>
      <g id="Group_317" data-name="Group 317" transform="translate(35.992 36.421)">
        <rect id="Rectangle_27" data-name="Rectangle 27" width="111.154" height="5.419" fill="#fc6454"/>
      </g>
      <g id="Group_318" data-name="Group 318" transform="translate(157.395 36.421)">
        <rect id="Rectangle_28" data-name="Rectangle 28" width="79.053" height="5.419" fill="#78d5e4"/>
      </g>
      <g id="Group_319" data-name="Group 319" transform="translate(48.133 48.561)">
        <rect id="Rectangle_29" data-name="Rectangle 29" width="79.052" height="5.419" fill="#fdfefe"/>
      </g>
      <g id="Group_320" data-name="Group 320" transform="translate(35.992 60.701)">
        <rect id="Rectangle_30" data-name="Rectangle 30" width="115.473" height="5.419" fill="#fdfefe"/>
      </g>
      <g id="Group_321" data-name="Group 321" transform="translate(35.992 72.842)">
        <rect id="Rectangle_31" data-name="Rectangle 31" width="79.052" height="5.419" fill="#fdfefe"/>
      </g>
      <g id="Group_322" data-name="Group 322" transform="translate(60.273 84.982)">
        <rect id="Rectangle_32" data-name="Rectangle 32" width="131.865" height="5.419" fill="#fc6454"/>
      </g>
      <g id="Group_323" data-name="Group 323" transform="translate(205.956 84.982)">
        <rect id="Rectangle_33" data-name="Rectangle 33" width="42.632" height="5.419" fill="#fdfefe"/>
      </g>
      <g id="Group_324" data-name="Group 324" transform="translate(266.657 84.982)">
        <rect id="Rectangle_34" data-name="Rectangle 34" width="42.632" height="5.419" fill="#fdfefe"/>
      </g>
      <g id="Group_325" data-name="Group 325" transform="translate(72.413 97.122)">
        <rect id="Rectangle_35" data-name="Rectangle 35" width="53.792" height="5.419" fill="#fdfefe"/>
      </g>
      <g id="Group_326" data-name="Group 326" transform="translate(72.413 109.262)">
        <rect id="Rectangle_36" data-name="Rectangle 36" width="71.761" height="5.419" fill="#fc6454"/>
      </g>
      <g id="Group_327" data-name="Group 327" transform="translate(169.535 109.262)">
        <rect id="Rectangle_37" data-name="Rectangle 37" width="79.053" height="5.419" fill="#fdfefe"/>
      </g>
      <g id="Group_328" data-name="Group 328" transform="translate(266.657 109.262)">
        <rect id="Rectangle_38" data-name="Rectangle 38" width="32.919" height="5.419" fill="#fc6454"/>
      </g>
      <g id="Group_329" data-name="Group 329" transform="translate(35.992 121.403)">
        <rect id="Rectangle_39" data-name="Rectangle 39" width="48.561" height="5.419" fill="#fdfefe"/>
      </g>
      <g id="Group_330" data-name="Group 330" transform="translate(35.992 133.543)">
        <rect id="Rectangle_40" data-name="Rectangle 40" width="79.052" height="5.419" fill="#fdfefe"/>
      </g>
      <g id="Group_331" data-name="Group 331" transform="translate(72.413 145.683)">
        <rect id="Rectangle_41" data-name="Rectangle 41" width="143.396" height="5.419" fill="#fdfefe"/>
      </g>
      <g id="Group_332" data-name="Group 332" transform="translate(230.237 145.683)">
        <rect id="Rectangle_42" data-name="Rectangle 42" width="88.765" height="5.419" fill="#78d5e4"/>
      </g>
      <g id="Group_333" data-name="Group 333" transform="translate(72.413 157.824)">
        <rect id="Rectangle_43" data-name="Rectangle 43" width="48.702" height="5.419" fill="#fdfefe"/>
      </g>
      <g id="Group_334" data-name="Group 334" transform="translate(133.114 157.824)">
        <rect id="Rectangle_44" data-name="Rectangle 44" width="48.702" height="5.419" fill="#58d05b"/>
      </g>
      <g id="Group_335" data-name="Group 335" transform="translate(193.816 157.824)">
        <rect id="Rectangle_45" data-name="Rectangle 45" width="48.702" height="5.419" fill="#fdfefe"/>
      </g>
      <g id="Group_336" data-name="Group 336" transform="translate(35.992 169.964)">
        <rect id="Rectangle_46" data-name="Rectangle 46" width="79.052" height="5.419" fill="#fdfefe"/>
      </g>
      <g id="Group_337" data-name="Group 337" transform="translate(60.273 182.104)">
        <rect id="Rectangle_47" data-name="Rectangle 47" width="79.052" height="5.419" fill="#58d05b"/>
      </g>
      <g id="Group_338" data-name="Group 338" transform="translate(154.29 182.104)">
        <rect id="Rectangle_48" data-name="Rectangle 48" width="79.053" height="5.419" fill="#58d05b"/>
      </g>
      <g id="Group_339" data-name="Group 339" transform="translate(152.611 206.385)">
        <rect id="Rectangle_49" data-name="Rectangle 49" width="44.31" height="5.419" fill="#fdfefe"/>
      </g>
      <g id="Group_340" data-name="Group 340" transform="translate(60.273 194.244)">
        <rect id="Rectangle_50" data-name="Rectangle 50" width="117.257" height="5.419" fill="#fdfefe"/>
      </g>
      <g id="Group_359" data-name="Group 359">
        <g id="Group_341" data-name="Group 341">
          <rect id="Rectangle_51" data-name="Rectangle 51" width="5.419" height="5.419" fill="#7194bf"/>
        </g>
        <g id="Group_342" data-name="Group 342" transform="translate(0 12.14)">
          <rect id="Rectangle_52" data-name="Rectangle 52" width="5.419" height="5.419" fill="#7194bf"/>
        </g>
        <g id="Group_343" data-name="Group 343" transform="translate(0 24.281)">
          <rect id="Rectangle_53" data-name="Rectangle 53" width="5.419" height="5.419" fill="#7194bf"/>
        </g>
        <g id="Group_344" data-name="Group 344" transform="translate(0 36.421)">
          <rect id="Rectangle_54" data-name="Rectangle 54" width="5.419" height="5.419" fill="#7194bf"/>
        </g>
        <g id="Group_345" data-name="Group 345" transform="translate(0 48.561)">
          <rect id="Rectangle_55" data-name="Rectangle 55" width="5.419" height="5.419" fill="#7194bf"/>
        </g>
        <g id="Group_346" data-name="Group 346" transform="translate(0 60.701)">
          <rect id="Rectangle_56" data-name="Rectangle 56" width="5.419" height="5.419" fill="#7194bf"/>
        </g>
        <g id="Group_347" data-name="Group 347" transform="translate(0 72.842)">
          <rect id="Rectangle_57" data-name="Rectangle 57" width="5.419" height="5.419" fill="#7194bf"/>
        </g>
        <g id="Group_348" data-name="Group 348" transform="translate(0 84.982)">
          <rect id="Rectangle_58" data-name="Rectangle 58" width="5.419" height="5.419" fill="#7194bf"/>
        </g>
        <g id="Group_349" data-name="Group 349" transform="translate(0 97.122)">
          <rect id="Rectangle_59" data-name="Rectangle 59" width="5.419" height="5.419" fill="#7194bf"/>
        </g>
        <g id="Group_350" data-name="Group 350" transform="translate(0 109.262)">
          <rect id="Rectangle_60" data-name="Rectangle 60" width="5.419" height="5.419" fill="#7194bf"/>
        </g>
        <g id="Group_351" data-name="Group 351" transform="translate(0 121.403)">
          <rect id="Rectangle_61" data-name="Rectangle 61" width="5.419" height="5.419" fill="#7194bf"/>
        </g>
        <g id="Group_352" data-name="Group 352" transform="translate(0 133.543)">
          <rect id="Rectangle_62" data-name="Rectangle 62" width="5.419" height="5.419" fill="#7194bf"/>
        </g>
        <g id="Group_353" data-name="Group 353" transform="translate(0 145.683)">
          <rect id="Rectangle_63" data-name="Rectangle 63" width="5.419" height="5.419" fill="#7194bf"/>
        </g>
        <g id="Group_354" data-name="Group 354" transform="translate(0 157.824)">
          <rect id="Rectangle_64" data-name="Rectangle 64" width="5.419" height="5.419" fill="#7194bf"/>
        </g>
        <g id="Group_355" data-name="Group 355" transform="translate(0 169.964)">
          <rect id="Rectangle_65" data-name="Rectangle 65" width="5.419" height="5.419" fill="#7194bf"/>
        </g>
        <g id="Group_356" data-name="Group 356" transform="translate(0 182.104)">
          <rect id="Rectangle_66" data-name="Rectangle 66" width="5.419" height="5.419" fill="#7194bf"/>
        </g>
        <g id="Group_357" data-name="Group 357" transform="translate(0 194.244)">
          <rect id="Rectangle_67" data-name="Rectangle 67" width="5.419" height="5.419" fill="#7194bf"/>
        </g>
        <g id="Group_358" data-name="Group 358" transform="translate(0 206.385)">
          <rect id="Rectangle_68" data-name="Rectangle 68" width="5.419" height="5.419" fill="#7194bf"/>
        </g>
      </g>
      <g id="Group_360" data-name="Group 360" transform="translate(60.273 206.385)">
        <rect id="Rectangle_69" data-name="Rectangle 69" width="58.628" height="5.419" fill="#fdfefe"/>
      </g>
      <g id="Group_364" data-name="Group 364" transform="translate(267.064 182.236)">
        <g id="Group_361" data-name="Group 361" transform="translate(0 5.873)">
          <path id="Path_669" data-name="Path 669" d="M569.281,498.576l-23.062-9.795v-3.994l23.062-9.795v4.255l-18.306,7.537,18.306,7.537Z" transform="translate(-546.219 -474.992)" fill="#fdfefe"/>
        </g>
        <g id="Group_362" data-name="Group 362" transform="translate(25.748)">
          <path id="Path_670" data-name="Path 670" d="M580.957,470.154l-10.081,34.855h-3.448l10.081-34.855Z" transform="translate(-567.428 -470.154)" fill="#fdfefe"/>
        </g>
        <g id="Group_363" data-name="Group 363" transform="translate(41.963 5.873)">
          <path id="Path_671" data-name="Path 671" d="M603.846,488.781l-23.062,9.795v-4.255l18.307-7.537-18.307-7.537v-4.255l23.062,9.795Z" transform="translate(-580.784 -474.992)" fill="#fdfefe"/>
        </g>
      </g>
    </g>
    <g id="Group_366" data-name="Group 366" transform="translate(94.344 259.477)">
      <path id="Path_672" data-name="Path 672" d="M689.581,529.176H304.748A24.277,24.277,0,0,1,280.471,504.9H713.858A24.277,24.277,0,0,1,689.581,529.176Z" transform="translate(-280.471 -504.899)" fill="#19bbd2"/>
    </g>
    <g id="Group_370" data-name="Group 370" transform="translate(127.88 9.267)" opacity="0.1" style="mix-blend-mode: overlay;isolation: isolate">
      <g id="Group_367" data-name="Group 367" transform="translate(89.148)">
        <path id="Path_673" data-name="Path 673" d="M415.944,553.9l90.6-255.1H472.124l-90.6,255.1Z" transform="translate(-381.527 -298.8)" fill="#fff"/>
      </g>
      <g id="Group_368" data-name="Group 368" transform="translate(0 0)">
        <path id="Path_674" data-name="Path 674" d="M317.362,553.9h16.17l90.6-255.1H317.362a9.294,9.294,0,0,0-9.267,9.267V544.633A9.294,9.294,0,0,0,317.362,553.9Z" transform="translate(-308.095 -298.8)" fill="#fff"/>
      </g>
      <g id="Group_369" data-name="Group 369" transform="translate(315.565 96.819)">
        <path id="Path_675" data-name="Path 675" d="M568.027,536.831h46.945a9.294,9.294,0,0,0,9.268-9.267V378.55Z" transform="translate(-568.027 -378.55)" fill="#fff"/>
      </g>
    </g>
    <g id="Group_372" data-name="Group 372" transform="translate(318.07 9.267)" opacity="0.1" style="mix-blend-mode: overlay;isolation: isolate">
      <g id="Group_371" data-name="Group 371">
        <path id="Path_676" data-name="Path 676" d="M464.756,553.9h63.008l90.6-255.1H555.353Z" transform="translate(-464.756 -298.8)" fill="#fff"/>
      </g>
    </g>
    <g id="Group_373" data-name="Group 373" transform="translate(94.344 259.477)">
      <path id="Path_677" data-name="Path 677" d="M710.584,517.037a24.13,24.13,0,0,0,3.274-12.138H280.471a24.129,24.129,0,0,0,3.274,12.138Z" transform="translate(-280.471 -504.899)" fill="#7bd7e2"/>
    </g>
    <g id="Group_384" data-name="Group 384" transform="translate(0 138.242)">
      <g id="Group_374" data-name="Group 374" transform="translate(13.87 10.064)">
        <rect id="Rectangle_70" data-name="Rectangle 70" width="74.234" height="21.732" fill="#bfd1d0"/>
      </g>
      <g id="Group_375" data-name="Group 375" transform="translate(13.87 14.948)">
        <rect id="Rectangle_71" data-name="Rectangle 71" width="74.234" height="16.847" fill="#a6bcbb"/>
      </g>
      <g id="Group_376" data-name="Group 376" transform="translate(53.607)">
        <rect id="Rectangle_72" data-name="Rectangle 72" width="22.998" height="14.948" fill="#bfd1d0"/>
      </g>
      <g id="Group_377" data-name="Group 377" transform="translate(7.799 30.36)">
        <path id="Path_678" data-name="Path 678" d="M283.418,545.788H221.324l-12.14-115.743h86.374Z" transform="translate(-209.184 -430.045)" fill="#fdfefe"/>
      </g>
      <g id="Group_378" data-name="Group 378" transform="translate(7.799 30.36)">
        <path id="Path_679" data-name="Path 679" d="M283.418,545.788H221.324l-12.14-115.743L222,483.381a84.929,84.929,0,0,0,61.418,62.407Z" transform="translate(-209.184 -430.045)" fill="#f4edcb"/>
      </g>
      <g id="Group_379" data-name="Group 379" transform="translate(0 27.873)">
        <rect id="Rectangle_73" data-name="Rectangle 73" width="101.973" height="7.264" fill="#a6bcbb"/>
      </g>
      <g id="Group_380" data-name="Group 380" transform="translate(0 18.22)">
        <rect id="Rectangle_74" data-name="Rectangle 74" width="101.973" height="13.285" fill="#bfd1d0"/>
      </g>
      <g id="Group_381" data-name="Group 381" transform="translate(10.346 54.641)">
        <path id="Path_680" data-name="Path 680" d="M285.832,514.212l6.73-64.167H211.282l6.73,64.167Z" transform="translate(-211.282 -450.045)" fill="#a9d8d5"/>
      </g>
      <g id="Group_382" data-name="Group 382" transform="translate(25.304 52.102)">
        <circle id="Ellipse_9" data-name="Ellipse 9" cx="23.369" cy="23.369" r="23.369" transform="translate(0 32.234) rotate(-43.604)" fill="#80cec7"/>
      </g>
      <g id="Group_383" data-name="Group 383" transform="translate(10.346 54.641)">
        <path id="Path_681" data-name="Path 681" d="M211.282,450.045l6.731,64.166h67.819l-37.561-6.689a33.14,33.14,0,0,1-25.742-22.487Z" transform="translate(-211.282 -450.045)" fill="#80cec7"/>
      </g>
    </g>
  </g>
</svg>
