<svg xmlns="http://www.w3.org/2000/svg" width="1453.836" height="542.846" viewBox="0 0 1453.836 542.846">
  <g id="Group_587" data-name="Group 587" transform="translate(-233.097 -4152.433)">
    <text id="Students_start_learning_new_concepts_based_on_their_interest" data-name="Students start learning
new concepts based on
their interest" transform="translate(731.247 4637.279)" font-size="22" font-family="Montserrat-Regular, Montserrat"><tspan x="0" y="0">Students start learning</tspan><tspan x="0" y="26">new concepts based on</tspan><tspan x="0" y="52">their interest</tspan></text>
    <text id="_03" data-name="03" transform="translate(728.902 4600.108)" fill="#fac235" font-size="63" font-family="Montserrat-Medium, Montserrat" font-weight="500"><tspan x="0" y="0">03</tspan></text>
    <text id="Collab_With_Us" data-name="Collab With Us" transform="translate(235.442 4636.279)" font-size="21" font-family="Montserrat-Regular, Montserrat"><tspan x="0" y="0">Collab With Us</tspan></text>
    <text id="_01" data-name="01" transform="translate(233.097 4599.108)" fill="#fac235" font-size="62" font-family="Montserrat-Medium, Montserrat" font-weight="500"><tspan x="0" y="0">01</tspan></text>
    <text id="Course_is_graded_by_assigned_teacher_or_AI_based_teacher" data-name="Course is graded by
assigned teacher or AI
based teacher" transform="translate(1227.125 4636.279)" font-size="21" font-family="Montserrat-Regular, Montserrat"><tspan x="0" y="0">Course is graded by</tspan><tspan x="0" y="25">assigned teacher or AI</tspan><tspan x="0" y="50">based teacher</tspan></text>
    <text id="_05" data-name="05" transform="translate(1224.781 4599.108)" fill="#fac235" font-size="62" font-family="Montserrat-Medium, Montserrat" font-weight="500"><tspan x="0" y="0">05</tspan></text>
    <text id="Students_complete_assignments_assigned_by_their_teacher_on_time" data-name="Students complete assignments
assigned by their teacher on
time" transform="translate(978.513 4250.604)" font-size="22" font-family="Montserrat-Regular, Montserrat"><tspan x="0" y="0">Students complete assignments</tspan><tspan x="0" y="26">assigned by their teacher on</tspan><tspan x="0" y="52">time</tspan></text>
    <text id="_04" data-name="04" transform="translate(976.168 4213.433)" fill="#fac235" font-size="63" font-family="Montserrat-Medium, Montserrat" font-weight="500"><tspan x="0" y="0">04</tspan></text>
    <text id="Teachers_assign_courses_to_students" data-name="Teachers assign courses 
to students" transform="translate(483.364 4249.604)" font-size="21" font-family="Montserrat-Regular, Montserrat"><tspan x="0" y="0">Teachers assign courses </tspan><tspan x="0" y="25">to students</tspan></text>
    <text id="_02" data-name="02" transform="translate(481.019 4212.433)" fill="#fac235" font-size="62" font-family="Montserrat-Medium, Montserrat" font-weight="500"><tspan x="0" y="0">02</tspan></text>
    <text id="Skill_achievement_badge" data-name="Skill achievement
badge" transform="translate(1475.025 4249.604)" font-size="21" font-family="Montserrat-Regular, Montserrat"><tspan x="0" y="0">Skill achievement</tspan><tspan x="0" y="25">badge</tspan></text>
    <text id="_06" data-name="06" transform="translate(1472.681 4213.433)" fill="#fac235" font-size="63" font-family="Montserrat-Medium, Montserrat" font-weight="500"><tspan x="0" y="0">06</tspan></text>
    <path id="Path_882" data-name="Path 882" d="M1499.476,381.238c-4.03-50.523-45.143-91.341-95.692-95.043a103.409,103.409,0,0,0-75.8,25.191,45.837,45.837,0,0,1-48.782,6.984h0c-16.546-7.4-26.925-23.795-27.328-41.917q-.064-2.887-.289-5.807c-3.918-51.029-45.658-92.185-96.734-95.434A103.914,103.914,0,0,0,1044.292,278.8v.266a41.706,41.706,0,0,1-24.677,38.128l-5.514,2.468c-14.68,6.566-32.093,4.294-43.962-6.557a104.142,104.142,0,0,0-26.218-17.5l-.3-.143c-1.07-.495-2.151-.965-3.238-1.423-.412-.175-.819-.354-1.233-.524-.85-.345-1.71-.669-2.569-.994-.669-.253-1.338-.506-2.012-.745s-1.341-.457-2.014-.678c-.884-.291-1.77-.577-2.663-.846-.519-.157-1.043-.3-1.566-.45-1.054-.3-2.11-.584-3.176-.848-.416-.105-.835-.2-1.253-.3q-1.745-.413-3.513-.763c-.371-.076-.747-.145-1.121-.215q-1.806-.339-3.63-.611c-.4-.06-.8-.116-1.195-.172q-1.742-.238-3.5-.419-.759-.081-1.519-.148c-.479-.042-.953-.1-1.432-.139-.5-.036-.987-.04-1.479-.069-.875-.054-1.75-.1-2.63-.125-.821-.029-1.643-.051-2.459-.06-.416,0-.828-.029-1.244-.029-.557,0-1.108.029-1.663.038-.716.011-1.43.025-2.142.049-1.056.038-2.106.1-3.153.17-.622.043-1.246.078-1.864.132-1.179.1-2.35.228-3.518.367-.481.058-.967.105-1.446.168-1.437.192-2.86.418-4.276.669-.206.036-.416.063-.62.1a102.9,102.9,0,0,0-14.767,3.851l-.054.018q-2.33.8-4.61,1.705c-.121.049-.24.1-.36.15q-2.128.849-4.209,1.795c-.157.072-.313.145-.468.217q-2.044.937-4.037,1.958l-.423.222q-2.031,1.054-4.008,2.191c-.1.058-.2.114-.3.17q-2.078,1.205-4.093,2.5l-.063.04a104.293,104.293,0,0,0-12.286,9.242c-.526.461-1.076.886-1.62,1.318a45.888,45.888,0,0,1-46.8,5.386h0c-16.546-7.4-26.925-23.795-27.328-41.917q-.064-2.887-.286-5.807a103.305,103.305,0,0,0-29.879-64.805l-.049-.049q-1.454-1.464-2.965-2.867c-.128-.119-.253-.242-.38-.36-.906-.835-1.831-1.649-2.766-2.453-.242-.206-.477-.418-.718-.622-.839-.707-1.7-1.4-2.556-2.077-.354-.282-.7-.566-1.063-.841-.772-.6-1.557-1.173-2.347-1.746-.461-.338-.922-.68-1.39-1.009-.709-.5-1.432-.98-2.155-1.461-.564-.376-1.126-.756-1.7-1.121-.656-.418-1.325-.821-1.99-1.226s-1.3-.8-1.965-1.179c-.615-.354-1.238-.694-1.86-1.036-.727-.4-1.455-.8-2.191-1.186-.586-.3-1.179-.6-1.77-.888-.788-.392-1.575-.781-2.376-1.152-.564-.264-1.135-.512-1.705-.765-.837-.369-1.676-.738-2.524-1.088-.559-.23-1.126-.448-1.69-.669-.868-.338-1.734-.674-2.612-.989-.575-.208-1.157-.4-1.737-.6-.877-.3-1.754-.593-2.641-.868-.6-.186-1.206-.358-1.81-.533-.875-.253-1.75-.5-2.634-.734-.642-.168-1.291-.32-1.936-.477-.855-.2-1.708-.407-2.567-.591-.7-.148-1.4-.28-2.1-.412-.821-.159-1.645-.313-2.473-.452-.756-.125-1.519-.233-2.28-.34-.779-.112-1.557-.222-2.341-.316-.826-.1-1.656-.177-2.486-.255-.492-.045-.978-.112-1.47-.15-.213-.018-.421-.018-.633-.034-.329-.022-.653-.065-.985-.085-.844-.054-1.678-.06-2.52-.094-.808-.034-1.62-.076-2.423-.09-1.09-.02-2.169,0-3.249.013-.841.011-1.685.009-2.524.04-1,.038-2,.114-2.992.181-.9.06-1.806.1-2.7.184-.857.081-1.7.2-2.551.3-1.018.121-2.039.224-3.048.371-.412.06-.815.145-1.224.213a102.5,102.5,0,0,0-13.991,3.243c-.17.051-.345.094-.515.148-1.394.436-2.766.92-4.135,1.412-.316.114-.638.215-.951.331-1.318.49-2.614,1.02-3.9,1.562-.349.145-.7.282-1.052.432-1.278.551-2.533,1.139-3.784,1.741-.342.163-.689.32-1.029.488-1.244.615-2.468,1.262-3.683,1.925-.331.181-.665.356-.994.539-1.215.68-2.41,1.39-3.594,2.115-.309.19-.62.376-.924.566q-1.789,1.125-3.527,2.321c-.275.19-.553.378-.828.571q-1.762,1.232-3.464,2.535c-.24.184-.479.365-.718.551q-1.735,1.349-3.413,2.768l-.584.5q-1.719,1.477-3.372,3.023c-.143.134-.286.271-.427.407q-1.708,1.618-3.346,3.312c-.083.085-.163.172-.244.257q-1.709,1.782-3.334,3.643l-.031.036a103.333,103.333,0,0,0-25.475,68.363A41.709,41.709,0,0,1,523.816,317.2l-5.514,2.468c-14.68,6.566-32.093,4.294-43.962-6.557a103.59,103.59,0,0,0-138.32-1.441,44.517,44.517,0,0,1-47.543,7.114l-.768-.342a46.757,46.757,0,0,1-27.48-41.979q-.057-2.578-.242-5.183c-3.592-50.673-44.479-91.936-95.121-95.944A103.913,103.913,0,0,0,52.992,287.263c4.026,50.523,45.135,91.346,95.683,95.052a103.412,103.412,0,0,0,75.817-25.189,45.833,45.833,0,0,1,48.78-6.984c16.546,7.4,26.928,23.793,27.331,41.914a107.256,107.256,0,0,0,.8,10.907c5.861,47.03,43.946,84.6,91.048,89.878a103.919,103.919,0,0,0,115.727-103.13v-.266a41.708,41.708,0,0,1,24.679-38.128l5.514-2.468c14.68-6.566,32.093-4.294,43.962,6.557a104.123,104.123,0,0,0,26.2,17.486l.309.15c1.074.5,2.162.967,3.254,1.428.4.172.8.347,1.211.512.855.349,1.723.678,2.591,1,.662.251,1.327.5,2,.738s1.349.459,2.025.683c.879.291,1.759.575,2.647.841.528.159,1.056.307,1.589.457q1.568.446,3.155.844c.423.105.846.2,1.271.3q1.739.409,3.5.761.567.111,1.135.215,1.8.339,3.625.611c.4.06.792.116,1.19.172q1.739.238,3.5.418.762.081,1.526.148c.474.042.944.1,1.421.137.495.036.985.042,1.477.072q1.319.081,2.643.125c.819.029,1.634.049,2.448.06.419,0,.835.029,1.253.029.568,0,1.128-.029,1.692-.038.689-.011,1.378-.022,2.065-.047,1.079-.04,2.153-.1,3.225-.175.593-.038,1.188-.072,1.777-.121,1.231-.105,2.453-.239,3.672-.385.423-.051.848-.09,1.271-.145a103.189,103.189,0,0,0,14.85-3.095c.078-.022.157-.049.233-.072q2.276-.658,4.5-1.417c.192-.065.383-.136.575-.2q2.068-.715,4.093-1.513c.219-.085.432-.175.649-.262q2-.806,3.963-1.692c.195-.087.389-.177.584-.266q2.021-.926,3.995-1.94c.132-.067.262-.132.392-.2q2.138-1.108,4.22-2.309l.027-.013a104.346,104.346,0,0,0,15.81-11.2,46.316,46.316,0,0,1,49.178-7.365c16.546,7.4,26.928,23.793,27.328,41.914a107.882,107.882,0,0,0,.8,10.907c.112.888.311,1.75.445,2.634.157,1.009.325,2.014.51,3.017q.668,3.652,1.6,7.21c.063.242.123.486.19.729a104.27,104.27,0,0,0,60.106,68.84c.141.058.28.123.421.184q2.35.977,4.751,1.839,2.034.735,4.1,1.39c1.126.351,2.253.683,3.395,1q2.82.779,5.7,1.4c.817.175,1.638.331,2.462.483,2.256.43,4.534.794,6.839,1.07.179.02.351.063.533.083.533.06,1.059.083,1.591.137.651.063,1.3.148,1.949.2.349.027.7.029,1.045.054,1.079.074,2.151.123,3.223.166.906.036,1.81.069,2.712.083,1.009.013,2.012,0,3.016-.013.947-.016,1.893-.029,2.835-.069s1.866-.1,2.8-.168c1-.069,1.99-.139,2.979-.235.85-.083,1.694-.19,2.54-.3,1.049-.128,2.1-.257,3.142-.418.761-.116,1.515-.257,2.271-.392,1.105-.2,2.209-.392,3.3-.622.662-.141,1.318-.3,1.976-.456,1.17-.271,2.336-.544,3.491-.853.55-.15,1.094-.318,1.643-.475,1.242-.356,2.482-.718,3.7-1.119.423-.139.841-.3,1.264-.441,1.329-.454,2.652-.92,3.956-1.426.271-.105.535-.224.8-.331,1.441-.573,2.873-1.166,4.281-1.8.078-.036.157-.076.235-.112a103.9,103.9,0,0,0,60.972-94.864,41.706,41.706,0,0,1,24.676-38.072l5.514-2.468c14.68-6.566,32.093-4.294,43.96,6.557a103.593,103.593,0,0,0,137.563,2.1,46.386,46.386,0,0,1,49.219-7.365h0c16.546,7.4,26.926,23.795,27.328,41.919q.064,2.9.291,5.834c3.885,50.4,44.667,91.283,95.054,95.282A103.912,103.912,0,0,0,1499.476,381.238Z" transform="translate(187.119 4117.813)" fill="#4285f4"/>
    <g id="Group_438" data-name="Group 438" transform="translate(260.9 4313.938)">
      <ellipse id="Ellipse_30" data-name="Ellipse 30" cx="76.707" cy="76.707" rx="76.707" ry="76.707" transform="translate(0 152.908) rotate(-85.348)" fill="#fff"/>
      <g id="Group_437" data-name="Group 437" transform="translate(34.635 38.316)">
        <path id="Path_883" data-name="Path 883" d="M126.817,209.162l-11.138,5.57-2.491-4.984,11.14-5.568Z" transform="translate(-33.484 -198.318)"/>
        <path id="Path_884" data-name="Path 884" d="M124.328,232.155l-11.14-5.568,2.493-4.984,11.138,5.57Z" transform="translate(-33.486 -176.751)"/>
        <path id="Path_885" data-name="Path 885" d="M114.989,214h11.323v5.57H114.989Z" transform="translate(-31.256 -186.158)"/>
        <path id="Path_886" data-name="Path 886" d="M80.834,204.181l11.14,5.57-2.491,4.981-11.14-5.57Z" transform="translate(-76.618 -198.318)"/>
        <path id="Path_887" data-name="Path 887" d="M80.834,232.154l-2.491-4.981,11.138-5.57,2.491,4.984Z" transform="translate(-76.618 -176.752)"/>
        <path id="Path_888" data-name="Path 888" d="M77.572,214H88.9v5.57H77.572Z" transform="translate(-77.572 -186.158)"/>
        <path id="Path_889" data-name="Path 889" d="M95.078,241.549h16.708v5.57H95.078Z" transform="translate(-55.903 -152.063)"/>
        <path id="Path_890" data-name="Path 890" d="M146.389,232.194a30.634,30.634,0,1,0-44.557,27.246V268.4h-5.57v5.57h5.57v11.511h27.847V273.966h5.57V268.4h-5.57V259.44A30.642,30.642,0,0,0,146.389,232.194Zm-22.28,47.713H107.4v-5.941h16.708Zm-11.14-42.143a2.785,2.785,0,1,1,2.786,2.784A2.789,2.789,0,0,1,112.969,237.764Zm5.57,30.631V245.639a8.353,8.353,0,1,0-5.57,0V268.4H107.4V255.862l-1.667-.73a25.064,25.064,0,1,1,20.042,0l-1.667.73V268.4Z" transform="translate(-68.226 -201.561)"/>
      </g>
    </g>
    <line id="Line_17" data-name="Line 17" y1="29.713" transform="translate(591.495 4350.078)" fill="none" stroke="#303030" stroke-linecap="round" stroke-miterlimit="10" stroke-width="2" stroke-dasharray="0 4"/>
    <line id="Line_18" data-name="Line 18" y1="29.713" transform="translate(1087.334 4350.078)" fill="none" stroke="#303030" stroke-linecap="round" stroke-miterlimit="10" stroke-width="2" stroke-dasharray="0 4"/>
    <line id="Line_19" data-name="Line 19" y1="29.713" transform="translate(1583.174 4350.078)" fill="none" stroke="#303030" stroke-linecap="round" stroke-miterlimit="10" stroke-width="2" stroke-dasharray="0 4"/>
    <line id="Line_20" data-name="Line 20" y2="29.713" transform="translate(343.575 4524.342)" fill="none" stroke="#303030" stroke-linecap="round" stroke-miterlimit="10" stroke-width="2" stroke-dasharray="0 4"/>
    <line id="Line_21" data-name="Line 21" y2="29.713" transform="translate(839.415 4524.342)" fill="none" stroke="#303030" stroke-linecap="round" stroke-miterlimit="10" stroke-width="2" stroke-dasharray="0 4"/>
    <line id="Line_22" data-name="Line 22" y2="29.713" transform="translate(1335.254 4524.342)" fill="none" stroke="#303030" stroke-linecap="round" stroke-miterlimit="10" stroke-width="2" stroke-dasharray="0 4"/>
    <g id="Group_440" data-name="Group 440" transform="translate(514.788 4430.816)">
      <ellipse id="Ellipse_31" data-name="Ellipse 31" cx="76.707" cy="76.707" rx="76.707" ry="76.707" transform="translate(0)" fill="#fff"/>
      <g id="Group_439" data-name="Group 439" transform="translate(28.785 27.224)">
        <path id="Path_891" data-name="Path 891" d="M217.579,264a14.033,14.033,0,1,0,14.033,14.033A14.049,14.049,0,0,0,217.579,264Zm0,22.454A8.421,8.421,0,1,1,226,278.038,8.43,8.43,0,0,1,217.579,286.459Z" transform="translate(-169.677 -230.053)"/>
        <path id="Path_892" data-name="Path 892" d="M212.013,276.44l-3.97-3.97,3.97-3.968,3.97,3.968Z" transform="translate(-164.11 -224.485)"/>
        <path id="Path_893" data-name="Path 893" d="M255.094,314.952a81.28,81.28,0,0,0-.788-16.846c-2.133-14.036-7.906-27.407-17.155-39.739L230,248.833l-7.15,9.533c-9.251,12.333-15.023,25.7-17.155,39.739a81.132,81.132,0,0,0-.788,16.846,27.437,27.437,0,0,0-11.4,22.26v7.528l5.83-4.272a25.074,25.074,0,0,1,9.665-3.816c1.063,3.312,1.848,5.205,2.914,8.094,1.853-1.24,6.3-6.734,15.275-7.81v7.785h5.612v-7.785c9,1.079,13.44,6.586,15.275,7.81,1.072-2.909,1.851-4.782,2.914-8.094a25.1,25.1,0,0,1,9.665,3.816l5.827,4.272v-7.528A27.447,27.447,0,0,0,255.094,314.952Zm-55.731,19.022a21.647,21.647,0,0,1,6.208-12.259,87.134,87.134,0,0,0,1.873,9.515A30.8,30.8,0,0,0,199.363,333.973Zm46.077,1.611a29.035,29.035,0,0,0-12.633-4.292v-14.64h-5.615v14.64a29.035,29.035,0,0,0-12.632,4.292c-8.374-25.527-3.894-51.618,12.782-73.85L230,258.189l2.659,3.545C249.333,283.967,253.814,310.058,245.44,335.584Zm7.116-4.355a87.666,87.666,0,0,0,1.875-9.515,21.647,21.647,0,0,1,6.208,12.259A30.789,30.789,0,0,0,252.556,331.23Z" transform="translate(-182.098 -248.833)"/>
        <path id="Path_894" data-name="Path 894" d="M188.411,258.988h17.028V264.6H188.411Z" transform="translate(-188.411 -236.263)"/>
        <path id="Path_895" data-name="Path 895" d="M223.614,258.988h17.028V264.6H223.614Z" transform="translate(-144.836 -236.263)"/>
        <path id="Path_896" data-name="Path 896" d="M192.334,250.094,207.6,257.21l-2.372,5.089-15.264-7.118Z" transform="translate(-186.491 -247.272)"/>
        <path id="Path_897" data-name="Path 897" d="M237.053,277.142l-15.262-7.118,2.372-5.087,15.262,7.116Z" transform="translate(-147.092 -228.899)"/>
        <path id="Path_898" data-name="Path 898" d="M189.962,272.052l15.262-7.116,2.372,5.089-15.262,7.116Z" transform="translate(-186.491 -228.9)"/>
        <path id="Path_899" data-name="Path 899" d="M237.055,250.094l2.372,5.087L224.163,262.3l-2.372-5.087Z" transform="translate(-147.092 -247.272)"/>
      </g>
    </g>
    <g id="Group_441" data-name="Group 441" transform="translate(751.3 4308.498)">
      <ellipse id="Ellipse_32" data-name="Ellipse 32" cx="76.707" cy="76.707" rx="76.707" ry="76.707" transform="translate(0 151.389) rotate(-80.682)" fill="#fff"/>
      <path id="Path_900" data-name="Path 900" d="M394.544,288.726h-5.55V248.067l5.55,5.55V221.943H362.87l9.952,9.952-9.589,9.587L341.756,225.51l-36.378,25.858V199.56h-5.55v94.716h94.716Zm-55.682-40.711v40.711H322.213V259.851Zm5.55.264L361.245,260.8v27.924H344.412Zm22.383,13.185,16.649-16.649v43.911H366.795ZM341.68,232.371,363.767,248.8l16.9-16.9-4.4-4.4h12.724v12.724l-4.4-4.4-20.322,20.319-22.68-16.873L305.378,265.01v-6.832Zm-36.3,39.448,11.285-8.023v24.929H305.378Z" transform="translate(-258.224 -160.282)"/>
    </g>
    <g id="Group_443" data-name="Group 443" transform="translate(1247.119 4308.498)">
      <ellipse id="Ellipse_33" data-name="Ellipse 33" cx="76.707" cy="76.707" rx="76.707" ry="76.707" transform="translate(0 151.389) rotate(-80.682)" fill="#fff"/>
      <g id="Group_442" data-name="Group 442" transform="translate(39.232 34.966)">
        <path id="Path_901" data-name="Path 901" d="M563.461,224.337a8.587,8.587,0,0,0-1.808-13.832l6.23-12.872H535.819l6.228,12.872a8.586,8.586,0,0,0-1.8,13.832c-15.472,11.843-19.912,30.593-19.912,50.074v15.3h51.577v5.731h46.227V238.131H575.424A45.285,45.285,0,0,0,563.461,224.337Zm-17.341-3.4a2.866,2.866,0,0,1,0-5.731h11.462a2.866,2.866,0,0,1,0,5.731Zm12.624-17.574-2.958,6.111h-7.868l-2.958-6.111Zm-32.681,80.613V274.41c0-23.341,6.828-38.967,20.865-47.742h9.846a39.447,39.447,0,0,1,15.135,17.119v40.189Zm86.344,5.729H577.639v-11.46h34.767Zm-34.767-17.191V261.053h34.767v11.462Zm34.767-28.653v11.46H577.639v-11.46Z" transform="translate(-520.331 -197.633)"/>
        <path id="Path_902" data-name="Path 902" d="M539.171,226.886a2.867,2.867,0,0,1,2.864,2.864h5.731a8.609,8.609,0,0,0-5.731-8.1v-3.357H536.3v3.357a8.6,8.6,0,0,0,2.867,16.7,2.864,2.864,0,1,1-2.867,2.864h-5.729a8.61,8.61,0,0,0,5.729,8.1v3.359h5.731v-3.359a8.595,8.595,0,0,0-2.864-16.7,2.866,2.866,0,1,1,0-5.731Z" transform="translate(-507.651 -172.062)"/>
      </g>
    </g>
    <g id="Group_445" data-name="Group 445" transform="translate(1010.627 4430.816)">
      <ellipse id="Ellipse_34" data-name="Ellipse 34" cx="76.707" cy="76.707" rx="76.707" ry="76.707" fill="#fff"/>
      <g id="Group_444" data-name="Group 444" transform="translate(29.324 22.798)">
        <path id="Path_903" data-name="Path 903" d="M489,272.29l4.885-4.883,4.4,4.4,4.4-4.4L489.488,254.2l-4.4,4.4,4.4,4.4-5.3,5.3a46.187,46.187,0,0,0-17.938-7.859v-7.362h6.226v-6.226H441.35v6.226h6.226v7.362a46.188,46.188,0,0,0-17.938,7.859l-5.3-5.3,4.4-4.4-4.4-4.4-13.205,13.205,4.4,4.4,4.4-4.4,4.885,4.883a46.692,46.692,0,1,0,64.181,0Zm-35.2-19.21h6.226v6.539c-1.032-.067-2.07-.105-3.113-.105s-2.081.038-3.113.105Zm3.113,93.8a40.57,40.57,0,1,1,40.466-40.672A40.615,40.615,0,0,1,456.914,346.879Z" transform="translate(-410.224 -246.855)"/>
        <path id="Path_904" data-name="Path 904" d="M439.366,283.513V258.076h-6.226v25.437a9.338,9.338,0,1,0,6.226,0Zm-3.113,11.914a3.112,3.112,0,1,1,3.113-3.111A3.116,3.116,0,0,1,436.253,295.427Z" transform="translate(-389.564 -232.965)"/>
        <path id="Path_905" data-name="Path 905" d="M429.7,285.895h6.226v6.226H429.7Z" transform="translate(-386.12 -198.53)"/>
        <path id="Path_906" data-name="Path 906" d="M415.788,271.986h6.226v6.223h-6.226Z" transform="translate(-403.337 -215.747)"/>
        <path id="Path_907" data-name="Path 907" d="M443.607,271.986h6.226v6.223h-6.226Z" transform="translate(-368.902 -215.747)"/>
        <path id="Path_908" data-name="Path 908" d="M423.689,290.051l-4.4-4.4,4.4-4.4,4.4,4.4Z" transform="translate(-399.008 -204.286)"/>
        <path id="Path_909" data-name="Path 909" d="M443.359,270.378l-4.4-4.4,4.4-4.4,4.4,4.4Z" transform="translate(-374.658 -228.635)"/>
        <path id="Path_910" data-name="Path 910" d="M443.359,290.05l-4.4-4.4,4.4-4.4,4.4,4.4Z" transform="translate(-374.658 -204.285)"/>
        <path id="Path_911" data-name="Path 911" d="M423.689,270.378l-4.4-4.4,4.4-4.4,4.4,4.4Z" transform="translate(-399.008 -228.635)"/>
      </g>
    </g>
    <g id="Group_447" data-name="Group 447" transform="translate(1506.446 4430.816)">
      <ellipse id="Ellipse_35" data-name="Ellipse 35" cx="76.707" cy="76.707" rx="76.707" ry="76.707" fill="#fff"/>
      <g id="Group_446" data-name="Group 446" transform="translate(27.807 29.261)">
        <path id="Path_912" data-name="Path 912" d="M651.635,292.2l12.628-6.64,12.628,6.64-2.412-14.062,10.216-9.958-14.118-2.052-6.313-12.794-6.315,12.794-14.118,2.052,10.216,9.958Zm10.12-20.834,2.508-5.084,2.509,5.084,5.608.815-4.057,3.956.958,5.588-5.017-2.638-5.019,2.638.96-5.588-4.059-3.956Z" transform="translate(-615.363 -245.294)"/>
        <path id="Path_913" data-name="Path 913" d="M645.435,261.4a14.327,14.327,0,1,0,0,28.653H649.5a31.74,31.74,0,0,0,21.915,21.743V324.43H660.747l-5.731,17.381h-6.523v5.731h63.035v-5.731H705l-5.731-17.381H688.605V311.778a31.645,31.645,0,0,0,21.729-21.729h4.247a14.327,14.327,0,1,0,0-28.653h-3.055v-5.921h5.921v-5.731H642.571v5.731H648.3V261.4Zm0,22.922a8.6,8.6,0,1,1,0-17.191H648.3v14.324c0,.967.047,1.922.132,2.867Zm53.533,57.494h-37.92l3.84-11.65h30.24ZM682.874,324.43h-5.731V312.838q1.417.128,2.867.13c.967,0,1.92-.045,2.865-.13Zm31.708-57.3a8.6,8.6,0,1,1,0,17.191H711.4c.085-.944.132-1.9.132-2.867V267.126ZM705.8,255.474v25.977a25.883,25.883,0,0,1-51.765,0V255.474Z" transform="translate(-631.109 -249.743)"/>
      </g>
    </g>
  </g>
</svg>
