<svg xmlns="http://www.w3.org/2000/svg" width="428.564" height="359.259" viewBox="0 0 428.564 359.259">
  <g id="Group_436" data-name="Group 436" transform="translate(-1070.333 -1007.852)" opacity="0.85">
    <rect id="Rectangle_150" data-name="Rectangle 150" width="173.571" height="357.649" rx="30.84" transform="translate(1243.904 1365.501) rotate(180)" fill="#4285f4"/>
    <rect id="Rectangle_151" data-name="Rectangle 151" width="164.251" height="357.649" rx="30" transform="translate(1244.438 1365.501) rotate(180)" opacity="0.39"/>
    <rect id="Rectangle_152" data-name="Rectangle 152" width="304.54" height="145.931" rx="28.68" transform="translate(1236.491 1022.918) rotate(90)" fill="#f3fbff"/>
    <g id="Group_423" data-name="Group 423" transform="translate(1316.757 1013.726)">
      <path id="Path_810" data-name="Path 810" d="M1471.8,1064.256h48.848a23.7,23.7,0,0,0,23.7-23.7h0a23.7,23.7,0,0,0-23.7-23.7H1471.8a23.7,23.7,0,0,0-23.7,23.7h0A23.7,23.7,0,0,0,1471.8,1064.256Z" transform="translate(-1448.098 -1016.857)" fill="#9bc1f9"/>
      <path id="Path_811" data-name="Path 811" d="M1566.354,1085.128l5.2,27.564-23.3-28.655Z" transform="translate(-1482.917 -1040.214)" fill="#9bc1f9"/>
      <g id="Group_421" data-name="Group 421" transform="translate(10.324 14.918)">
        <path id="Path_812" data-name="Path 812" d="M1535.909,1043.083H1465.6a1.678,1.678,0,0,1,0-3.357h70.307a1.678,1.678,0,1,1,0,3.357Z" transform="translate(-1463.924 -1039.726)" fill="#fff"/>
      </g>
      <g id="Group_422" data-name="Group 422" transform="translate(10.324 27.375)">
        <path id="Path_813" data-name="Path 813" d="M1535.909,1062.18H1465.6a1.679,1.679,0,0,1,0-3.357h70.307a1.679,1.679,0,1,1,0,3.357Z" transform="translate(-1463.924 -1058.823)" fill="#fff"/>
      </g>
    </g>
    <path id="Path_814" data-name="Path 814" d="M1290.069,1210.615l-23.147-18.758-10.109,18.22,18.621,17.749Z" transform="translate(-64.835 -63.975)" fill="#13375b"/>
    <path id="Path_815" data-name="Path 815" d="M1280.618,1224.132a11.263,11.263,0,1,0,14.646-6.2A11.248,11.248,0,0,0,1280.618,1224.132Z" transform="translate(-72.828 -72.753)" fill="#13375b"/>
    <path id="Path_816" data-name="Path 816" d="M1154.794,1223.247l9.583-29.5-4.575-2.6c-7.036-4-15.5.272-18.519,9.344l-5.861,17.594Z" transform="translate(-22.63 -63.205)" fill="#13375b"/>
    <path id="Path_817" data-name="Path 817" d="M1145.664,1218.112c-5.528-.35-10.364,4.948-10.8,11.834s3.688,12.75,9.215,13.1,10.364-4.948,10.8-11.833S1151.192,1218.462,1145.664,1218.112Z" transform="translate(-22.424 -73.098)" fill="#13375b"/>
    <g id="Group_428" data-name="Group 428" transform="translate(1094.075 1159.649)">
      <g id="Group_424" data-name="Group 424" transform="translate(6.078 65.347)">
        <path id="Path_818" data-name="Path 818" d="M1120.064,1341.156q-1.109-.208-2.22-.408a1.043,1.043,0,0,0-1.211.836q-.378,2.133-.582,4.277a1.037,1.037,0,0,0,.975,1.125q1.12.068,2.239.146a1.04,1.04,0,0,0,1.107-.943q.186-1.914.522-3.823A1.042,1.042,0,0,0,1120.064,1341.156Z" transform="translate(-1116.046 -1340.732)" fill="#355389"/>
        <path id="Path_819" data-name="Path 819" d="M1118.8,1351.814l-1-.029a1.043,1.043,0,0,0-1.073,1.014q-.049,2.646.166,5.276a1.035,1.035,0,0,0,1.152.935l.991-.108a1.037,1.037,0,0,0,.922-1.121q-.2-2.437-.153-4.9A1.046,1.046,0,0,0,1118.8,1351.814Z" transform="translate(-1116.28 -1344.574)" fill="#355389"/>
      </g>
      <path id="Path_820" data-name="Path 820" d="M1136.123,1241.434a40.854,40.854,0,0,1-4.738-.693,9.2,9.2,0,0,0-10.412,5.856l-9.231,24.8a9.2,9.2,0,0,0,6,11.994,75.281,75.281,0,0,0,17.771,3.153,9.206,9.206,0,0,0,9.747-9.439q-.4-13.4-.8-26.807A9.157,9.157,0,0,0,1136.123,1241.434Z" transform="translate(-1108.271 -1240.556)" fill="#466eb6"/>
      <path id="Path_821" data-name="Path 821" d="M1125.579,1310.172l-4.165-.918a7.761,7.761,0,0,0-9.255,5.888l-.981,4.426,17.656,3.893,1.349-6.09A6.037,6.037,0,0,0,1125.579,1310.172Z" transform="translate(-1108.276 -1264.377)" fill="#355389"/>
      <path id="Path_822" data-name="Path 822" d="M1122.8,1329.491l-3.42-.753a1.041,1.041,0,0,0-1.241.789l-1.051,4.742a1.038,1.038,0,0,0,.792,1.238l3.42.754a1.042,1.042,0,0,0,1.241-.79l1.051-4.742A1.039,1.039,0,0,0,1122.8,1329.491Z" transform="translate(-1110.324 -1271.206)" fill="#355389"/>
      <g id="Group_425" data-name="Group 425" transform="translate(0 63.864)">
        <path id="Path_823" data-name="Path 823" d="M1110.747,1338.883q-1.109-.208-2.221-.408a1.042,1.042,0,0,0-1.211.836q-.378,2.133-.582,4.277a1.037,1.037,0,0,0,.975,1.124q1.12.068,2.239.147a1.04,1.04,0,0,0,1.107-.943q.186-1.914.522-3.822A1.043,1.043,0,0,0,1110.747,1338.883Z" transform="translate(-1106.729 -1338.458)" fill="#355389"/>
        <path id="Path_824" data-name="Path 824" d="M1109.479,1349.541q-.5-.016-1-.029a1.042,1.042,0,0,0-1.072,1.014,52.668,52.668,0,0,0,.165,5.276,1.035,1.035,0,0,0,1.152.935l.99-.109a1.037,1.037,0,0,0,.922-1.12q-.2-2.438-.153-4.9A1.046,1.046,0,0,0,1109.479,1349.541Z" transform="translate(-1106.963 -1342.301)" fill="#355389"/>
      </g>
      <path id="Path_825" data-name="Path 825" d="M1113.488,1327.217l-3.42-.753a1.041,1.041,0,0,0-1.241.789l-1.051,4.743a1.038,1.038,0,0,0,.792,1.237l3.419.754a1.042,1.042,0,0,0,1.241-.789l1.051-4.743A1.039,1.039,0,0,0,1113.488,1327.217Z" transform="translate(-1107.084 -1270.416)" fill="#355389"/>
      <g id="Group_426" data-name="Group 426" transform="translate(12.155 66.895)">
        <path id="Path_826" data-name="Path 826" d="M1129.381,1343.529q-1.109-.208-2.22-.408a1.041,1.041,0,0,0-1.211.836q-.378,2.133-.582,4.277a1.037,1.037,0,0,0,.976,1.125q1.119.068,2.238.147a1.04,1.04,0,0,0,1.107-.943q.186-1.913.522-3.822A1.042,1.042,0,0,0,1129.381,1343.529Z" transform="translate(-1125.363 -1343.104)" fill="#355389"/>
        <path id="Path_827" data-name="Path 827" d="M1128.113,1354.187l-1-.029a1.043,1.043,0,0,0-1.073,1.014q-.049,2.646.166,5.276a1.035,1.035,0,0,0,1.152.935l.99-.109a1.037,1.037,0,0,0,.922-1.12q-.2-2.437-.153-4.9A1.045,1.045,0,0,0,1128.113,1354.187Z" transform="translate(-1125.597 -1346.947)" fill="#355389"/>
      </g>
      <path id="Path_828" data-name="Path 828" d="M1132.122,1331.864l-3.419-.754a1.042,1.042,0,0,0-1.241.79l-1.051,4.742a1.038,1.038,0,0,0,.792,1.237l3.42.754a1.041,1.041,0,0,0,1.241-.789l1.051-4.743A1.038,1.038,0,0,0,1132.122,1331.864Z" transform="translate(-1113.563 -1272.031)" fill="#355389"/>
      <g id="Group_427" data-name="Group 427" transform="translate(21.753 60.962)">
        <path id="Path_829" data-name="Path 829" d="M1140.921,1334.435q1.11-.209,2.22-.408a1.043,1.043,0,0,1,1.212.836q.377,2.133.581,4.278a1.036,1.036,0,0,1-.975,1.124q-1.12.068-2.238.147a1.041,1.041,0,0,1-1.108-.943q-.186-1.913-.522-3.822A1.042,1.042,0,0,1,1140.921,1334.435Z" transform="translate(-1140.076 -1334.009)" fill="#355389"/>
        <path id="Path_830" data-name="Path 830" d="M1143.054,1345.092l1-.029a1.044,1.044,0,0,1,1.073,1.014q.049,2.646-.166,5.276a1.034,1.034,0,0,1-1.152.935l-.99-.109a1.035,1.035,0,0,1-.922-1.119q.2-2.438.152-4.9A1.046,1.046,0,0,1,1143.054,1345.092Z" transform="translate(-1140.706 -1337.852)" fill="#355389"/>
      </g>
      <path id="Path_831" data-name="Path 831" d="M1140.6,1322.39c.016-.071.031-.142.044-.213l1.008-.222a1,1,0,0,1,1.194.76l1.075,4.85a1,1,0,0,1-.762,1.191l-3.067.676a1,1,0,0,1-.98-.329Z" transform="translate(-1117.988 -1268.848)" fill="#355389"/>
    </g>
    <path id="Path_832" data-name="Path 832" d="M1234.057,1081.48c.006-49.249-67.53-49.257-67.535,0H1164.8c-.006-51.788,71.011-51.8,71.017,0Z" transform="translate(-32.843 -12.094)" fill="#b75742"/>
    <path id="Path_833" data-name="Path 833" d="M1214.284,1042.781a9.889,9.889,0,0,1,.162,1.9c17.838-1.575,36.819,10.695,36.816,36.8h1.758C1253.017,1054.013,1233.044,1041.115,1214.284,1042.781Z" transform="translate(-50.049 -12.094)" fill="#b75742"/>
    <path id="Path_834" data-name="Path 834" d="M1214.364,1042.7v1.906c18.041-1.091,34.282,11.326,34.279,37,.6,0,5.337-.185,5.939-.185C1254.578,1054.471,1233.3,1041.608,1214.364,1042.7Z" transform="translate(-50.077 -12.095)" fill="#33658a"/>
    <path id="Path_835" data-name="Path 835" d="M1268.568,1095.238c-4.372.109-7.67,7.078-7.369,15.46.286,7.983,3.732,14.637,7.835,15.1h0c5.939-.722,13.02-6.076,12.791-12.679v-5.132C1281.828,1101.113,1275.052,1095.076,1268.568,1095.238Z" transform="translate(-66.353 -30.381)" fill="#4285f4"/>
    <path id="Rectangle_153" data-name="Rectangle 153" d="M7.665,0H29.8a7.665,7.665,0,0,1,7.665,7.665v7.523a0,0,0,0,1,0,0H0a0,0,0,0,1,0,0V7.665A7.665,7.665,0,0,1,7.665,0Z" transform="translate(1149.768 1172.806)" fill="#13375b"/>
    <path id="Path_836" data-name="Path 836" d="M1199.6,1282.309c0,6.2-4.5,11.222-10.05,11.222s-10.05-5.025-10.05-11.222,4.5-11.223,10.05-11.223S1199.6,1276.111,1199.6,1282.309Z" transform="translate(-37.955 -91.521)" fill="#13375b"/>
    <ellipse id="Ellipse_28" data-name="Ellipse 28" cx="10.051" cy="11.222" rx="10.051" ry="11.222" transform="translate(1181.29 1232.107)" fill="#13375b"/>
    <path id="Path_837" data-name="Path 837" d="M1259.83,1449.656c0,6.2-4.5,11.223-10.051,11.223s-10.05-5.025-10.05-11.223,4.5-11.222,10.05-11.222S1259.83,1443.459,1259.83,1449.656Z" transform="translate(-58.895 -149.705)" fill="#13375b"/>
    <path id="Path_838" data-name="Path 838" d="M1251.192,1282.309c0,6.2-4.5,11.222-10.051,11.222s-10.05-5.025-10.05-11.222,4.5-11.223,10.05-11.223S1251.192,1276.111,1251.192,1282.309Z" transform="translate(-55.892 -91.521)" fill="#13375b"/>
    <path id="Path_839" data-name="Path 839" d="M1231.541,1184.331a166.813,166.813,0,0,0-62.447.326,4.416,4.416,0,0,0-3.258,5.991q7.316,18,13.11,36.51a4.449,4.449,0,0,0,4.789,3.081l.59-.068a6.353,6.353,0,0,1,7.062,6.311l1.29,21.479,17.467-.318,1.344-20.074a6.349,6.349,0,0,1,7.467-6.252l.116.022a4.431,4.431,0,0,0,5.067-3.241q5.053-19.136,10.847-38.125A4.424,4.424,0,0,0,1231.541,1184.331Z" transform="translate(-33.091 -60.389)" fill="#355389"/>
    <path id="Path_840" data-name="Path 840" d="M1224.138,1228.1q5.053-19.136,10.847-38.125a4.424,4.424,0,0,0-3.444-5.641,166.813,166.813,0,0,0-62.447.326,4.416,4.416,0,0,0-3.258,5.991q7.316,18,13.11,36.51a4.449,4.449,0,0,0,4.789,3.081l.59-.068c.122-.014.243-.024.365-.031l1.233-.268,31.2,1.38a6.3,6.3,0,0,1,1.832.065l.116.022.771.072A4.439,4.439,0,0,0,1224.138,1228.1Z" transform="translate(-33.091 -60.389)" fill="#466eb6"/>
    <path id="Path_841" data-name="Path 841" d="M1254.189,1339.45a129.871,129.871,0,0,1-17.423-.3,5.18,5.18,0,0,1-4.4-5.8q1.452-17.149,2.9-34.3a4.976,4.976,0,0,1,4.9-4.806,93.507,93.507,0,0,0,10.526-.23,4.952,4.952,0,0,1,5.095,4.795q1.474,17.413,2.948,34.827C1258.99,1336.673,1256.914,1339.314,1254.189,1339.45Z" transform="translate(-56.326 -99.49)" fill="#466eb6"/>
    <path id="Path_842" data-name="Path 842" d="M1267.336,1424.839l-7.648-39.679a6.6,6.6,0,0,0-6.25-5.636H1242.8a6.6,6.6,0,0,0-6.25,5.636l-7.648,39.679h.008v13.635a5.409,5.409,0,0,0,4.282,5.514,4.531,4.531,0,0,0,1.134.035c2.6-.242,4.558-2.748,4.558-5.657v-6.89c0-3.665,2.661-6.637,5.944-6.637h14.7a4.242,4.242,0,0,1,3.99,4.455v14.748h0a3.807,3.807,0,0,0,3.807-3.807v-15.4Z" transform="translate(-55.132 -129.223)" fill="#466eb6"/>
    <path id="Path_843" data-name="Path 843" d="M1256.368,1453.68s-11.193-.255-15.532,2.806c-2.209,1.558-3.057,5.364-3.357,8.725a9.672,9.672,0,0,0,3.923,8.819l4.361,3a9.319,9.319,0,0,0,5.181,1.676l10.478.129c4.314.053,7.917-3.684,8.161-8.493.236-4.653.16-9.889-1.108-12.075C1265.962,1453.935,1256.368,1453.68,1256.368,1453.68Z" transform="translate(-58.099 -155.004)" fill="#355389"/>
    <path id="Path_844" data-name="Path 844" d="M1194.914,1362.971c-.091,6.2-4.665,11.155-10.215,11.073s-9.975-5.173-9.883-11.37,4.665-11.155,10.215-11.073S1195.005,1356.774,1194.914,1362.971Z" transform="translate(-36.326 -119.515)" fill="#13375b"/>
    <path id="Path_845" data-name="Path 845" d="M1189.056,1449.477c-.092,6.2-4.666,11.155-10.215,11.073s-9.975-5.173-9.884-11.369,4.665-11.155,10.215-11.073S1189.147,1443.28,1189.056,1449.477Z" transform="translate(-34.289 -149.591)" fill="#13375b"/>
    <path id="Path_846" data-name="Path 846" d="M1191.694,1339.45a129.873,129.873,0,0,1-17.423-.3,5.18,5.18,0,0,1-4.4-5.8q1.452-17.149,2.9-34.3a4.976,4.976,0,0,1,4.9-4.806,93.5,93.5,0,0,0,10.526-.23,4.952,4.952,0,0,1,5.095,4.795q1.474,17.413,2.948,34.827C1196.5,1336.673,1194.419,1339.314,1191.694,1339.45Z" transform="translate(-34.598 -99.49)" fill="#466eb6"/>
    <path id="Path_847" data-name="Path 847" d="M1196.556,1424.8l-7.061-39.787a6.6,6.6,0,0,0-6.166-5.728l-10.632-.157a6.6,6.6,0,0,0-6.333,5.543l-8.234,39.561h.008l-.2,13.634a5.407,5.407,0,0,0,4.2,5.575,4.545,4.545,0,0,0,1.134.052c2.6-.2,4.6-2.68,4.641-5.59l.1-6.888c.054-3.665,2.759-6.6,6.041-6.548l14.7.217a4.242,4.242,0,0,1,3.924,4.513l-.218,14.747h0a3.807,3.807,0,0,0,3.863-3.751l.228-15.395Z" transform="translate(-30.458 -129.086)" fill="#466eb6"/>
    <path id="Path_848" data-name="Path 848" d="M1185.526,1453.511s-11.188-.42-15.573,2.576c-2.232,1.525-3.136,5.318-3.485,8.674a9.669,9.669,0,0,0,3.792,8.876l4.317,3.069a9.316,9.316,0,0,0,5.156,1.752l10.474.284c4.313.117,7.971-3.566,8.285-8.371.3-4.649.306-9.885-.929-12.091C1195.114,1453.908,1185.526,1453.511,1185.526,1453.511Z" transform="translate(-33.404 -154.94)" fill="#355389"/>
    <path id="Rectangle_154" data-name="Rectangle 154" d="M0,0H14.162a0,0,0,0,1,0,0V13.308A7.081,7.081,0,0,1,7.081,20.39h0A7.081,7.081,0,0,1,0,13.308V0A0,0,0,0,1,0,0Z" transform="translate(1160.352 1109.397)" fill="#13375b"/>
    <ellipse id="Ellipse_29" data-name="Ellipse 29" cx="38.375" cy="36.906" rx="38.375" ry="36.906" transform="translate(1128.372 1041.28)" fill="#466eb6"/>
    <path id="Path_849" data-name="Path 849" d="M1231.791,1121.748a96.887,96.887,0,0,0-40.034.149c-2.683.575-5.275-1.425-5.87-4.556l-1.5-7.877c-.626-3.3,1.2-6.568,4.024-7.162a111.275,111.275,0,0,1,46.655.164c2.813.612,4.619,3.872,3.995,7.155l-1.437,7.563C1237.035,1120.3,1234.463,1122.3,1231.791,1121.748Z" transform="translate(-39.612 -32.007)" fill="#13375b"/>
    <path id="Path_850" data-name="Path 850" d="M1252.7,1113.526a4.459,4.459,0,1,1-4.455-4.252A4.357,4.357,0,0,1,1252.7,1113.526Z" transform="translate(-60.309 -35.262)" fill="#9bc1f9"/>
    <path id="Path_851" data-name="Path 851" d="M1160.328,1081.436c.575,0,5.241.618,5.815.618,0-23.143,13.737-35.907,29.544-37.3a9.9,9.9,0,0,0-.162-1.9C1178.907,1044.332,1160.325,1057.111,1160.328,1081.436Z" transform="translate(-31.289 -12.171)" fill="#33658a"/>
    <path id="Path_852" data-name="Path 852" d="M1158.173,1094.643c4.372.109,7.67,7.078,7.369,15.461-.286,7.983-3.731,14.637-7.834,15.1h0c-5.939-.722-13.02-6.075-12.792-12.679v-5.131C1144.913,1100.519,1151.689,1094.482,1158.173,1094.643Z" transform="translate(-25.928 -30.175)" fill="#4285f4"/>
    <g id="Group_429" data-name="Group 429" transform="translate(1154.089 1075.387)">
      <path id="Path_853" data-name="Path 853" d="M1200.2,1117.034a1.468,1.468,0,0,1-1.077-2.465c1.958-2.108,6.992-5.13,12.038-1.476a1.469,1.469,0,1,1-1.723,2.38c-4.187-3.032-8.005.93-8.166,1.1A1.468,1.468,0,0,1,1200.2,1117.034Z" transform="translate(-1198.729 -1111.383)" fill="#9bc1f9"/>
    </g>
    <g id="Group_434" data-name="Group 434" transform="translate(1217.012 1100.172)">
      <g id="Group_430" data-name="Group 430" transform="translate(56.705 6.69)">
        <path id="Path_854" data-name="Path 854" d="M1382.373,1173.045q.743.85,1.493,1.694a1.042,1.042,0,0,0,1.468.093q1.617-1.442,3.1-3a1.036,1.036,0,0,0-.071-1.487q-.838-.747-1.668-1.5a1.04,1.04,0,0,0-1.453.056q-1.331,1.388-2.774,2.68A1.043,1.043,0,0,0,1382.373,1173.045Z" transform="translate(-1382.118 -1162.743)" fill="#355389"/>
        <path id="Path_855" data-name="Path 855" d="M1390.583,1165.511q.382.319.764.638a1.042,1.042,0,0,0,1.47-.133q1.675-2.049,3.133-4.248a1.035,1.035,0,0,0-.327-1.448l-.845-.527a1.037,1.037,0,0,0-1.418.31q-1.353,2.037-2.909,3.943A1.047,1.047,0,0,0,1390.583,1165.511Z" transform="translate(-1384.932 -1159.635)" fill="#355389"/>
      </g>
      <path id="Path_856" data-name="Path 856" d="M1298.061,1216.837a40.815,40.815,0,0,1,3.294,3.474,9.2,9.2,0,0,0,11.8,1.839l22.59-13.776a9.2,9.2,0,0,0,2.705-13.134,75.337,75.337,0,0,0-12.014-13.469,9.205,9.205,0,0,0-13.5,1.39l-15.953,21.558A9.157,9.157,0,0,0,1298.061,1216.837Z" transform="translate(-1295.189 -1159.834)" fill="#466eb6"/>
      <path id="Path_857" data-name="Path 857" d="M1354.155,1186.019l2.7,3.3a7.763,7.763,0,0,0,10.914,1.1l3.509-2.872-11.466-13.979-4.827,3.95A6.038,6.038,0,0,0,1354.155,1186.019Z" transform="translate(-1315.213 -1157.787)" fill="#355389"/>
      <path id="Path_858" data-name="Path 858" d="M1372.412,1179.64l2.221,2.708a1.041,1.041,0,0,0,1.464.147l3.759-3.076a1.038,1.038,0,0,0,.144-1.462l-2.22-2.708a1.041,1.041,0,0,0-1.464-.147l-3.759,3.076A1.039,1.039,0,0,0,1372.412,1179.64Z" transform="translate(-1321.956 -1158.24)" fill="#355389"/>
      <g id="Group_431" data-name="Group 431" transform="translate(60.564 11.615)">
        <path id="Path_859" data-name="Path 859" d="M1388.288,1180.594q.744.85,1.493,1.695a1.042,1.042,0,0,0,1.468.092q1.616-1.442,3.1-3a1.036,1.036,0,0,0-.071-1.487q-.838-.745-1.668-1.5a1.039,1.039,0,0,0-1.453.056q-1.33,1.388-2.774,2.68A1.043,1.043,0,0,0,1388.288,1180.594Z" transform="translate(-1388.033 -1170.292)" fill="#355389"/>
        <path id="Path_860" data-name="Path 860" d="M1396.5,1173.06q.382.32.765.638a1.043,1.043,0,0,0,1.47-.133,52.723,52.723,0,0,0,3.133-4.248,1.035,1.035,0,0,0-.327-1.448q-.424-.262-.845-.527a1.037,1.037,0,0,0-1.417.31q-1.353,2.037-2.909,3.943A1.046,1.046,0,0,0,1396.5,1173.06Z" transform="translate(-1390.847 -1167.184)" fill="#355389"/>
      </g>
      <path id="Path_861" data-name="Path 861" d="M1378.327,1187.189l2.221,2.708a1.041,1.041,0,0,0,1.464.147l3.759-3.076a1.038,1.038,0,0,0,.144-1.462l-2.22-2.707a1.041,1.041,0,0,0-1.464-.147l-3.759,3.076A1.039,1.039,0,0,0,1378.327,1187.189Z" transform="translate(-1324.013 -1160.865)" fill="#355389"/>
      <g id="Group_432" data-name="Group 432" transform="translate(52.887 1.715)">
        <path id="Path_862" data-name="Path 862" d="M1376.52,1165.418q.743.85,1.493,1.695a1.041,1.041,0,0,0,1.468.092q1.617-1.442,3.1-3a1.036,1.036,0,0,0-.072-1.487q-.837-.747-1.668-1.5a1.04,1.04,0,0,0-1.453.056q-1.33,1.388-2.774,2.681A1.042,1.042,0,0,0,1376.52,1165.418Z" transform="translate(-1376.265 -1155.116)" fill="#355389"/>
        <path id="Path_863" data-name="Path 863" d="M1384.729,1157.884l.764.638a1.042,1.042,0,0,0,1.47-.133,52.7,52.7,0,0,0,3.133-4.248,1.035,1.035,0,0,0-.327-1.448q-.424-.262-.845-.527a1.037,1.037,0,0,0-1.417.31q-1.353,2.037-2.909,3.943A1.046,1.046,0,0,0,1384.729,1157.884Z" transform="translate(-1379.079 -1152.008)" fill="#355389"/>
      </g>
      <path id="Path_864" data-name="Path 864" d="M1366.558,1172.013l2.221,2.708a1.041,1.041,0,0,0,1.464.147l3.759-3.076a1.039,1.039,0,0,0,.144-1.463l-2.221-2.708a1.041,1.041,0,0,0-1.464-.147l-3.759,3.076A1.038,1.038,0,0,0,1366.558,1172.013Z" transform="translate(-1319.921 -1155.588)" fill="#355389"/>
      <g id="Group_433" data-name="Group 433" transform="translate(41.871)">
        <path id="Path_865" data-name="Path 865" d="M1361.931,1165.312q-1-.521-2-1.052a1.042,1.042,0,0,1-.435-1.406q1.022-1.909,2.188-3.721a1.036,1.036,0,0,1,1.462-.28q.922.638,1.849,1.269a1.041,1.041,0,0,1,.287,1.426q-1.038,1.618-1.954,3.326A1.041,1.041,0,0,1,1361.931,1165.312Z" transform="translate(-1359.377 -1152.607)" fill="#355389"/>
        <path id="Path_866" data-name="Path 866" d="M1367.291,1155.8l-.8-.593a1.042,1.042,0,0,1-.216-1.461,52.578,52.578,0,0,1,3.393-4.043,1.034,1.034,0,0,1,1.483-.022l.711.7a1.037,1.037,0,0,1,.032,1.451q-1.662,1.794-3.149,3.754A1.046,1.046,0,0,1,1367.291,1155.8Z" transform="translate(-1361.703 -1149.378)" fill="#355389"/>
      </g>
      <path id="Path_867" data-name="Path 867" d="M1354.95,1174.729c-.056.046-.112.093-.166.14l-.93-.449a1,1,0,0,1-.469-1.336l2.155-4.476a1,1,0,0,1,1.335-.465l2.829,1.366a1,1,0,0,1,.566.865Z" transform="translate(-1315.389 -1155.868)" fill="#355389"/>
    </g>
    <path id="Path_868" data-name="Path 868" d="M1567.013,1201.344s-21.381-10.926-24.275-16.352-14.99-23.691-14.99-23.691-6.178.781-7.812,3.551c2.006,7.528,8.164,28.386,16.121,34.535s28.912,18.822,28.912,18.822Z" transform="translate(-156.318 -53.351)" fill="#ffa283"/>
    <g id="Group_435" data-name="Group 435" transform="translate(1405.742 1269.541)">
      <path id="Path_869" data-name="Path 869" d="M1585.236,1418.627s-.724,14.829-.724,23.871,13.926,44.486,12.659,49.55,13.123,4.375,13.123,4.375.982-27.523-2.724-40.543,0-39.784,0-39.784Z" transform="translate(-1584.512 -1411.479)" fill="#ffa283"/>
      <path id="Path_870" data-name="Path 870" d="M1639.169,1409.019s4.673,24.508,8.471,30.114,24.232,43.764,24.232,48.646,12.84.9,12.84.9-10.85-41.774-15.191-54.432a150.9,150.9,0,0,1-5.967-23.148Z" transform="translate(-1603.515 -1409.019)" fill="#ffa283"/>
    </g>
    <path id="Path_871" data-name="Path 871" d="M1581.754,1359.74c-1.329,8.065-6.735,57.052-6.735,57.052s18.438,5.662,29.469,3.13c0,0-.311-39.386,2.222-39.386h.076a8,8,0,0,1,7.669,6.055c2.112,8.49,7.908,34.09,7.908,34.09s23.3-3.247,28.368-5.6c0,0-7.784-55.412-16.284-63.912l-10.2-9.153-37.165-4.79S1582.695,1354.034,1581.754,1359.74Z" transform="translate(-175.469 -114.517)" fill="#13375b"/>
    <path id="Path_872" data-name="Path 872" d="M1570.16,1545.843h39.513s.814-14.286-1.9-17-1.99.343-6.51,2.07-7.463-2.438-9.529-4.5-.6,6.593-9.279,6.593S1568.171,1541.864,1570.16,1545.843Z" transform="translate(-173.64 -180.181)" fill="#466eb6"/>
    <path id="Path_873" data-name="Path 873" d="M1683.4,1525.425c-2.013.585-8.138,6.188-9.945,11.974s-1.086,7.776-1.086,7.776,6.692,2.532,19.169.9,10.489-2.893,10.489-2.893-1.628-12.84-3.978-16.637S1686.932,1524.4,1683.4,1525.425Z" transform="translate(-209.268 -179.515)" fill="#466eb6"/>
    <path id="Path_874" data-name="Path 874" d="M1688.028,1283.395c12.89,20.805,20.361,35.115,13.156,44.158-7.872,9.881-24.529,7.945-32.243,16.343a14.277,14.277,0,0,1-8.71-9.819l7.468-2.427c14.849-6.446,21.108-10.262,19.052-17.3s-9.311-16.423-9.311-16.423C1680.789,1282.751,1688.028,1283.395,1688.028,1283.395Z" transform="translate(-205.096 -95.799)" fill="#ffa283"/>
    <path id="Path_875" data-name="Path 875" d="M1660,1260.428s-9.878,14.589-17.6,14.854c-5.067-7.631-7.327-12.014-7.376-11.178-.056.946-.046,25.867-1.361,39.475-10.188,5.9-58.1,2.007-58.137-4.229-.024-4.763,11.538-52.489,4.884-57.688-2.419-1.89-22.986-12.92-22.986-12.92s8.579-16.876,13.859-22.108c0,0,10.306,5.389,20.151,9.35,12.916,5.2,23.79,6.632,30.975,9.969C1647.733,1237.706,1649.633,1243.359,1660,1260.428Z" transform="translate(-169.353 -69.112)" fill="#4285f4"/>
    <path id="Path_876" data-name="Path 876" d="M1623.921,1209.96v17.9s6.557,7.053,15.056,2.17l3.916-23.039Z" transform="translate(-192.471 -69.237)" fill="#ffa283"/>
    <path id="Path_877" data-name="Path 877" d="M1623.921,1218.982c5.416,1.366,12.111-.937,17.868-5.5l1.1-6.487-18.971,2.967Z" transform="translate(-192.471 -69.237)" fill="#4285f4" opacity="0.68" style="mix-blend-mode: multiply;isolation: isolate"/>
    <path id="Path_878" data-name="Path 878" d="M1618.154,1162.4s-18.473,22.168-10.057,33.048,27.506,3.49,36.947-10.263S1621.644,1152.133,1618.154,1162.4Z" transform="translate(-186.206 -52.726)" fill="#ffa283"/>
    <path id="Path_879" data-name="Path 879" d="M1641.41,1164.441s6.774.2,4.1,6.568-7.492,8.519-4.926,11.084c1.765,1.764.758,5.372-.044,7.454a5.152,5.152,0,0,0-.14,3.359l.044.147a5.427,5.427,0,0,0,5.658,3.827c6.215-.536,16.613-3.666,16.034-18.687,0,0,5.179-9.648.024-17.037s-9.055-6.774-9.055-6.774-1.847-6.979-7.595-8.621-22.579-7.6-24.426,1.642S1627.451,1163.414,1641.41,1164.441Z" transform="translate(-191.397 -46.765)" fill="#011037"/>
    <path id="Path_880" data-name="Path 880" d="M1647.963,1193.215c.479-.245,7.307-3.412,8.313.462.934,3.6-.362,9.16-5.262,9.16S1641.806,1196.371,1647.963,1193.215Z" transform="translate(-199.772 -63.943)" fill="#ffa283"/>
    <path id="Path_881" data-name="Path 881" d="M1517.625,1160.866a71.9,71.9,0,0,0,9.654-3.75,17.3,17.3,0,0,1-2.229-3.44c-.853-2.711,4.532-13.322,3.65-14.191s-4.171,4.652-4.715,4.117-1.316-12.661-3.114-12.625,0,10.3-1.129,10.322-3.106-12.216-4.879-10.954,2.477,10.729,1.288,11.23-4.611-8.464-5.876-8.439-.312,2.013.6,4.382,2.442,5.613,1.71,5.628-4.309-5.644-5.566-5.21,8.793,16.81,9.663,20.408A22.216,22.216,0,0,0,1517.625,1160.866Z" transform="translate(-151.789 -42.556)" fill="#ffa283"/>
    <text id="_4285F4" data-name="4285F4" transform="translate(1249.813 1130.412)" font-size="2" font-family="Montserrat-Regular, Montserrat"><tspan x="0" y="0">4285F4</tspan></text>
  </g>
</svg>
