<svg xmlns="http://www.w3.org/2000/svg" xmlns:xlink="http://www.w3.org/1999/xlink" width="563.612" height="391.377" viewBox="0 0 563.612 391.377">
  <defs>
    <clipPath id="clip-path">
      <rect width="504.291" height="391.34" fill="none"/>
    </clipPath>
  </defs>
  <g id="Group_588" data-name="Group 588" transform="translate(-73.809 -58.83)" opacity="0.85">
    <g id="Repeat_Grid_1" data-name="Repeat Grid 1" transform="translate(103.388 58.866)" clip-path="url(#clip-path)">
      <g id="Group_398" data-name="Group 398">
        <rect id="Rectangle_101" data-name="Rectangle 101" width="1.676" height="8.842" transform="translate(322.748 11.241) rotate(-83.531)" fill="#407bff"/>
        <rect id="Rectangle_102" data-name="Rectangle 102" width="1.676" height="28.708" transform="translate(284.606 6.916) rotate(-83.532)" fill="#407bff"/>
        <rect id="Rectangle_103" data-name="Rectangle 103" width="319.919" height="247.721" rx="4.9" transform="translate(186.408 0) rotate(6.468)" fill="#4285f4"/>
        <path id="Path_733" data-name="Path 733" d="M192.8,330.25l25.33-223.411a6.012,6.012,0,0,1,6.651-5.3l297.839,33.769a6.013,6.013,0,0,1,5.3,6.651l-25.33,223.411a6.013,6.013,0,0,1-6.651,5.3L198.094,336.9A6.01,6.01,0,0,1,192.8,330.25Z" transform="translate(-28.96 -95.013)" fill="#263238" opacity="0.7"/>
        <rect id="Rectangle_104" data-name="Rectangle 104" width="126.318" height="6.221" transform="translate(323.641 81.132) rotate(6.468)" fill="#4285f4"/>
        <rect id="Rectangle_105" data-name="Rectangle 105" width="133.815" height="6.221" transform="translate(335.408 92.45) rotate(6.468)" fill="#4285f4"/>
        <rect id="Rectangle_106" data-name="Rectangle 106" width="110.875" height="6.221" transform="matrix(0.994, 0.113, -0.113, 0.994, 334.291, 102.306)" fill="#4285f4"/>
        <rect id="Rectangle_107" data-name="Rectangle 107" width="99.317" height="6.221" transform="translate(333.173 112.162) rotate(6.468)" fill="#4285f4"/>
        <rect id="Rectangle_108" data-name="Rectangle 108" width="82.072" height="6.221" transform="translate(318.47 126.74) rotate(6.468)" fill="#4285f4"/>
        <rect id="Rectangle_109" data-name="Rectangle 109" width="88.11" height="6.221" transform="translate(328.002 157.77) rotate(6.468)" fill="#4285f4"/>
        <rect id="Rectangle_110" data-name="Rectangle 110" width="73.005" height="6.221" transform="translate(329.12 147.914) rotate(6.468)" fill="#4285f4"/>
        <rect id="Rectangle_111" data-name="Rectangle 111" width="80.405" height="6.221" transform="translate(330.237 138.057) rotate(6.468)" fill="#4285f4"/>
        <rect id="Rectangle_112" data-name="Rectangle 112" width="82.072" height="6.221" transform="translate(309.947 201.917) rotate(6.468)" fill="#4285f4"/>
        <rect id="Rectangle_113" data-name="Rectangle 113" width="88.11" height="6.221" transform="translate(319.479 232.947) rotate(6.468)" fill="#4285f4"/>
        <rect id="Rectangle_114" data-name="Rectangle 114" width="73.005" height="6.221" transform="translate(320.596 223.091) rotate(6.468)" fill="#4285f4"/>
        <rect id="Rectangle_115" data-name="Rectangle 115" width="80.405" height="6.221" transform="matrix(0.994, 0.113, -0.113, 0.994, 321.714, 213.234)" fill="#4285f4"/>
        <rect id="Rectangle_116" data-name="Rectangle 116" width="66.64" height="6.221" transform="matrix(0.994, 0.113, -0.113, 0.994, 203.141, 20.898)" fill="#fff"/>
        <rect id="Rectangle_117" data-name="Rectangle 117" width="71.543" height="6.221" transform="translate(210.25 51.654) rotate(6.468)" fill="#fff"/>
        <rect id="Rectangle_118" data-name="Rectangle 118" width="59.278" height="6.221" transform="translate(211.368 41.797) rotate(6.468)" fill="#fff"/>
        <rect id="Rectangle_119" data-name="Rectangle 119" width="65.286" height="6.221" transform="translate(212.485 31.94) rotate(6.468)" fill="#fff"/>
        <rect id="Rectangle_120" data-name="Rectangle 120" width="88.11" height="6.221" transform="translate(324.65 187.34) rotate(6.468)" fill="#4285f4"/>
        <rect id="Rectangle_121" data-name="Rectangle 121" width="73.005" height="6.221" transform="translate(325.767 177.483) rotate(6.468)" fill="#4285f4"/>
        <rect id="Rectangle_122" data-name="Rectangle 122" width="80.405" height="6.221" transform="translate(326.885 167.627) rotate(6.468)" fill="#4285f4"/>
        <path id="Path_734" data-name="Path 734" d="M235.553,422.715l-11.08-.244-1.542-25.706,11.08.244Z" transform="translate(-8.56 104.625)" fill="#ffc3bd"/>
        <path id="Path_735" data-name="Path 735" d="M222.933,396.769l.793,13.25,11.085.244-.793-13.25Z" transform="translate(-8.559 104.628)" opacity="0.2"/>
        <path id="Path_736" data-name="Path 736" d="M250.793,197.862c-3.693,7.229-7.581,14.214-11.7,21.176-4.175,6.948-8.409,13.788-13.459,20.622-.632.855-1.339,1.731-2.006,2.593-.3.4-.773.939-1.212,1.436s-.877,1.011-1.373,1.467a28.746,28.746,0,0,1-6.346,4.8,34.887,34.887,0,0,1-14.145,4.319,49.893,49.893,0,0,1-13.506-.652,57.372,57.372,0,0,1-6.343-1.514,50.951,50.951,0,0,1-6.217-2.224l2.67-8.471c1.629.184,3.6.392,5.407.5,1.844.109,3.686.1,5.491.077a45.467,45.467,0,0,0,10.312-1.3,22.9,22.9,0,0,0,8.175-3.7,15.55,15.55,0,0,0,2.856-2.756,7.313,7.313,0,0,0,.59-.779c.191-.272.365-.486.634-.91l1.473-2.258c3.939-6.319,7.749-13.24,11.515-20.092l11.319-20.684Z" transform="translate(-41.318 -35.51)" fill="#ffc3bd"/>
        <path id="Path_737" data-name="Path 737" d="M241.329,191.842c1.7,10.11-21.31,40.38-21.31,40.38l-16.852-20.255s7.908-13.733,16.424-23.278C228.338,178.888,239.457,180.746,241.329,191.842Z" transform="translate(-21.924 -40.372)" fill="#fff"/>
        <path id="Path_738" data-name="Path 738" d="M232.215,193.184c-6.664,1.641-18.012,8.783-23.528,22.64l7.6,9.14s13.62-17.9,19.118-30.776A2.893,2.893,0,0,0,232.215,193.184Z" transform="translate(-18.191 -33.107)" opacity="0.2"/>
        <path id="Path_739" data-name="Path 739" d="M225.526,182.466S207.851,205,209.017,270.025l59.691,10.789c2.068-9.088,2.8-46.044,19.445-87.62a158.153,158.153,0,0,0-19.527-6.136c-7.561-1.745-18.558-3.984-25.373-4.586A113.823,113.823,0,0,0,225.526,182.466Z" transform="translate(-18.005 -40.506)" fill="#fff"/>
        <path id="Path_740" data-name="Path 740" d="M249.736,203.87c-2.548,3.6-4.09,13.376-.654,20.1.8-4.157,1.76-8.515,2.9-13.057Z" transform="translate(7.777 -25.799)" opacity="0.2"/>
        <path id="Path_741" data-name="Path 741" d="M230.573,182.33s-7.162,14.068,1.187,21.376c14.6-1.252,24.188-16.792,24.188-16.792Z" transform="translate(-5.326 -40.363)" fill="#263238"/>
        <path id="Path_742" data-name="Path 742" d="M164.279,217.134l.183,8.324,7.209,5.207,3.248-11.419Z" transform="translate(-48.217 -16.831)" fill="#ffc3bd"/>
        <path id="Path_743" data-name="Path 743" d="M184.778,222.754l-12.841-4.36-3.248,11.418s7.477,3.252,13.466-1.091Z" transform="translate(-45.236 -15.979)" fill="#ffc3bd"/>
        <path id="Path_744" data-name="Path 744" d="M257.846,167.748c-3.077,7.876-7.378,22.546-2.652,29.026,0,0-6.5,7.595-21.1,8.848-8.349-7.31-4.272-13.434-4.272-13.434,9.5-.528,10.483-7.325,10.043-13.956Z" transform="translate(-4.574 -50.222)" fill="#ffc3bd"/>
        <path id="Path_745" data-name="Path 745" d="M229.42,182.329" transform="translate(-4.173 -40.364)" fill="#407bff"/>
        <path id="Path_746" data-name="Path 746" d="M244.558,185.065" transform="translate(6.063 -38.514)" fill="#407bff"/>
        <path id="Path_747" data-name="Path 747" d="M246.072,170.3l-10.642,6.2a26.649,26.649,0,0,1-.032,4.645c4.725,2.424,8.58-.117,10.655-5.235C246.749,174.191,246.214,171.2,246.072,170.3Z" transform="translate(-0.131 -48.496)" opacity="0.2"/>
        <path id="Path_748" data-name="Path 748" d="M232.163,169.869c.676,4.985,16.186-3.18,18.8-4.894s-.389-7.717-6.262-12.539S230.57,158.113,232.163,169.869Z" transform="translate(-2.454 -61.387)" fill="#263238"/>
        <path id="Path_749" data-name="Path 749" d="M265.215,172.59c-4.738,10.211-6.991,16.426-14.376,19.728-11.109,4.966-22.148-4.879-20.556-16.3,1.431-10.28,8.939-25.249,20.809-25.4A15.351,15.351,0,0,1,265.215,172.59Z" transform="translate(-3.694 -61.807)" fill="#ffc3bd"/>
        <path id="Path_750" data-name="Path 750" d="M249.608,178.585c-4.975.744-1.468-16.428-.551-19.421s8.907-5.716,13.379.427C267.888,167.078,261.343,176.834,249.608,178.585Z" transform="translate(7.714 -58.234)" fill="#263238"/>
        <path id="Path_751" data-name="Path 751" d="M255.413,151.979c-4.505-.907-3.216-5.674.091-5.427-2.658-3.23-18.458-6.182-19.282,4.274s19.477,16.255,24.973,16.991l8.243,2.295C280.444,164.6,268.188,154.556,255.413,151.979Z" transform="translate(0.409 -66.587)" fill="#263238"/>
        <path id="Path_752" data-name="Path 752" d="M255.908,174.5a10.7,10.7,0,0,1-7.652,2.865c-3.75-.156-4.469-3.788-2.459-6.721,1.809-2.638,5.939-5.737,9.234-4.148C258.28,168.063,258.424,172.113,255.908,174.5Z" transform="translate(6.16 -51.361)" fill="#ffc3bd"/>
        <path id="Path_753" data-name="Path 753" d="M216.869,409.979,206,412.122l-5.323-25.11,10.874-2.142Z" transform="translate(-23.611 96.582)" fill="#ffc3bd"/>
        <path id="Path_754" data-name="Path 754" d="M212.017,401.379l11.874-2.34a.969.969,0,0,1,1.073.56l4.053,9.242a1.613,1.613,0,0,1-1.183,2.243c-4.3.771-10.538,1.74-15.922,2.8-6.3,1.24-8.33,1.373-15.712,2.826-4.465.88-6.592-3.389-4.805-4.165,8.141-3.537,11.713-3.823,18.169-9.8A5.127,5.127,0,0,1,212.017,401.379Z" transform="translate(-30.311 106.151)" fill="#263238"/>
        <path id="Path_755" data-name="Path 755" d="M200.674,387.016l2.742,12.943,10.878-2.143-2.742-12.943Z" transform="translate(-23.609 96.584)" opacity="0.2"/>
        <path id="Path_756" data-name="Path 756" d="M202.3,402.881a3.437,3.437,0,0,1-2.248.21,1.611,1.611,0,0,1-1.011-1.143.854.854,0,0,1,.169-.872c.945-1.029,5.164-.184,5.642-.084a.268.268,0,0,1,.094.486A13.276,13.276,0,0,1,202.3,402.881Zm-2.389-1.623a.78.78,0,0,0-.305.183.325.325,0,0,0-.05.354,1.1,1.1,0,0,0,.677.791c.761.276,2.177-.168,3.85-1.2A10.824,10.824,0,0,0,199.908,401.259Z" transform="translate(-24.749 107.199)" fill="#407bff"/>
        <path id="Path_757" data-name="Path 757" d="M204.387,402.793a.266.266,0,0,1-.131.013c-1.322-.194-4.308-1.747-4.517-3.019a.875.875,0,0,1,.562-.954,1.466,1.466,0,0,1,1.192-.07c1.607.558,2.989,3.538,3.046,3.664a.267.267,0,0,1-.029.273A.277.277,0,0,1,204.387,402.793Zm-3.731-3.53a.821.821,0,0,0-.111.05c-.313.159-.287.322-.275.389.122.751,2.125,2.016,3.527,2.445-.454-.853-1.45-2.519-2.481-2.876A.944.944,0,0,0,200.656,399.263Z" transform="translate(-24.25 105.914)" fill="#407bff"/>
        <path id="Path_758" data-name="Path 758" d="M223.371,234.564s-26.507,100.86-34.16,134.609c-7.962,35.105,18.813,130,18.813,130l17.688-3.486s-7.429-96.739-4.9-112.107c10.149-37.165,41.8-141.921,41.8-141.921Z" transform="translate(-32.359 -5.045)" fill="#4285f4"/>
        <path id="Path_759" data-name="Path 759" d="M211.294,302.52a225.4,225.4,0,0,0,.655,42.172c7.585-26.362,18.117-61.727,25.689-86.988C229.99,261,214.115,271.479,211.294,302.52Z" transform="translate(-16.913 10.6)" opacity="0.2"/>
        <path id="Path_760" data-name="Path 760" d="M226.446,235.521s-13.867,102.793-12.69,136c1.289,36.366,9.893,142.083,9.893,142.083l20.766.459s-.313-99.972,1.6-135.4c2.082-38.452,18.945-136.183,18.945-136.183Z" transform="translate(-14.812 -4.398)" fill="#4285f4"/>
        <path id="Path_761" data-name="Path 761" d="M242.562,406.935l-22.372-.493-1.764-8.485,24.778-.145Z" transform="translate(-11.606 105.333)" fill="#263238"/>
        <path id="Path_762" data-name="Path 762" d="M222.768,393.413l-21.956,4.326-3.546-7.908,24.332-4.356Z" transform="translate(-25.914 96.992)" fill="#263238"/>
        <path id="Path_763" data-name="Path 763" d="M242.176,162.717c-.334.852-1.054,1.364-1.612,1.146s-.737-1.084-.4-1.936,1.056-1.366,1.612-1.148S242.509,161.864,242.176,162.717Z" transform="translate(2.976 -54.968)" fill="#263238"/>
        <path id="Path_764" data-name="Path 764" d="M236.432,160.468c-.334.852-1.054,1.366-1.612,1.148s-.737-1.086-.4-1.938,1.054-1.366,1.612-1.148S236.765,159.616,236.432,160.468Z" transform="translate(-0.908 -56.489)" fill="#263238"/>
        <path id="Path_765" data-name="Path 765" d="M239.686,160.483s-3.86,4.157-6.921,5.694c.957,2,3.77,2.355,3.77,2.355Z" transform="translate(-1.911 -55.135)" fill="#ed847e"/>
        <path id="Path_766" data-name="Path 766" d="M234.986,168.057a.269.269,0,0,1,.216-.493,7.24,7.24,0,0,0,6.549-.218.269.269,0,0,1,.372.079.266.266,0,0,1-.079.37A7.668,7.668,0,0,1,234.986,168.057Z" transform="translate(-0.518 -50.523)" fill="#263238"/>
        <path id="Path_767" data-name="Path 767" d="M245.59,162.634a.536.536,0,0,1-.273-.392,4.271,4.271,0,0,0-2.159-3.225.538.538,0,1,1,.449-.977,5.32,5.32,0,0,1,2.772,4.043.539.539,0,0,1-.789.551Z" transform="translate(4.905 -56.82)" fill="#263238"/>
        <path id="Path_768" data-name="Path 768" d="M234.2,156.953a.517.517,0,0,1-.168-.173.535.535,0,0,1,.176-.737,5.335,5.335,0,0,1,4.879-.479.538.538,0,0,1-.458.974h0a4.255,4.255,0,0,0-3.86.421A.537.537,0,0,1,234.2,156.953Z" transform="translate(-1.11 -58.715)" fill="#263238"/>
        <path id="Path_769" data-name="Path 769" d="M260.255,186.88l-2.774-.754a.56.56,0,0,0-.672.342c-15.454,40.7-19.133,86.2-19.133,86.2l3.109.563c5.841-46.852,18.1-80.917,19.851-85.631A.546.546,0,0,0,260.255,186.88Z" transform="translate(1.409 -37.81)" fill="#4285f4"/>
        <g id="Group_395" data-name="Group 395" transform="translate(238.471 233.911)" opacity="0.99">
          <path id="Path_770" data-name="Path 770" d="M241.485,238.774a1.023,1.023,0,0,0-.823-1.185l-2.152-.389a1.024,1.024,0,0,0-1.185.823,1.01,1.01,0,0,0,.593,1.093l-.481,2.668a1.335,1.335,0,1,0,2.627.474l.483-2.667A1.009,1.009,0,0,0,241.485,238.774Z" transform="translate(-237.31 -237.184)" fill="#263238"/>
        </g>
        <path id="Path_771" data-name="Path 771" d="M230.271,181.808l-2.886.023a.562.562,0,0,0-.528.385c-13.528,41.065-14.879,85.57-14.879,85.57l3.109.561c3.647-46.7,14.014-80.5,15.719-85.815A.556.556,0,0,0,230.271,181.808Z" transform="translate(-15.966 -40.716)" fill="#4285f4"/>
        <path id="Path_772" data-name="Path 772" d="M215.785,234.133a1.083,1.083,0,0,0-.868-1.193l-2.154-.389a.967.967,0,0,0-1.138.831,1.071,1.071,0,0,0,.639,1.1l-.359,2.69a1.418,1.418,0,0,0,1.136,1.56,1.265,1.265,0,0,0,1.49-1.086l.359-2.69A.95.95,0,0,0,215.785,234.133Z" transform="translate(-16.211 -6.418)" fill="#263238" opacity="0.99"/>
        <path id="Path_773" data-name="Path 773" d="M225.463,261.634l9.367,6.622,7.023-5.187-8.987-10.939Z" transform="translate(-6.848 6.832)" fill="#ffc3bd"/>
        <path id="Path_774" data-name="Path 774" d="M243.137,250.942l-13.258,1.991,8.987,10.94s9.2-2.234,8.7-9.616Z" transform="translate(-3.862 6.029)" fill="#ffc3bd"/>
        <path id="Path_775" data-name="Path 775" d="M278.482,199.078c.5,8.761.781,17.472.828,26.245.042,4.385.013,8.771-.074,13.19-.037,2.211-.087,4.418-.2,6.661l-.164,3.379-.1,1.706c-.064.779-.163,1.679-.268,2.507a28.29,28.29,0,0,1-2.866,8.346,51.231,51.231,0,0,1-4.046,6.542,85.2,85.2,0,0,1-9.406,10.6,135.024,135.024,0,0,1-21.408,16.666l-5.421-7.036c2.913-2.953,5.965-6.024,8.773-9.165,2.858-3.114,5.615-6.284,8.185-9.505a85.278,85.278,0,0,0,6.852-9.792,35.745,35.745,0,0,0,2.372-4.807,14.445,14.445,0,0,0,1.044-4.06,6.878,6.878,0,0,1,0-.744l-.037-1.557-.1-3.144-.256-6.393-.61-12.91c-.424-8.625-.783-17.306-1.019-25.932Z" transform="translate(-0.155 -29.039)" fill="#ffc3bd"/>
        <path id="Path_776" data-name="Path 776" d="M261.777,189.155C276.106,194.5,276,232.826,276,232.826l-24.255,4.465s-5.863-17.425-2.968-31.136C251.539,193.069,250.88,185.092,261.777,189.155Z" transform="translate(8.371 -36.468)" fill="#fff"/>
        <g id="Group_396" data-name="Group 396" transform="translate(0 52.38)">
          <path id="Path_777" data-name="Path 777" d="M176.645,273.35l-64.964-24.326L100.267,180.6l53.551-44.1,64.964,24.326L230.2,229.252Zm-62.222-26.585,61.638,23.082,50.807-41.84-10.83-64.92L154.4,140l-50.807,41.84Z" transform="translate(-91.499 -123.73)" fill="#4285f4"/>
          <circle id="Ellipse_14" data-name="Ellipse 14" cx="10.411" cy="10.411" r="10.411" transform="translate(48.088 16.945) rotate(-54.471)" fill="#4285f4"/>
          <circle id="Ellipse_15" data-name="Ellipse 15" cx="10.411" cy="10.411" r="10.411" transform="translate(70.333 150.291) rotate(-54.471)" fill="#4285f4"/>
          <path id="Path_778" data-name="Path 778" d="M168.307,164.361a10.411,10.411,0,1,1,14.522-2.424A10.411,10.411,0,0,1,168.307,164.361Z" transform="translate(-48.444 -117.661)" fill="#4285f4"/>
          <path id="Path_779" data-name="Path 779" d="M99.4,175.783a10.411,10.411,0,1,1,14.522-2.422A10.409,10.409,0,0,1,99.4,175.783Z" transform="translate(-95.036 -109.937)" fill="#4285f4"/>
          <path id="Path_780" data-name="Path 780" d="M174.954,204.208a10.411,10.411,0,1,1,14.522-2.422A10.411,10.411,0,0,1,174.954,204.208Z" transform="translate(-43.949 -90.719)" fill="#4285f4"/>
          <path id="Path_781" data-name="Path 781" d="M106.044,215.632a10.411,10.411,0,1,1,14.522-2.424A10.414,10.414,0,0,1,106.044,215.632Z" transform="translate(-90.541 -82.995)" fill="#4285f4"/>
        </g>
        <g id="Group_397" data-name="Group 397" transform="translate(35.52 108.475)">
          <path id="Path_782" data-name="Path 782" d="M132.506,167.859l13.121-2.189,3.84,23.02q1.209,7.248.555,11.247a12.841,12.841,0,0,1-4.1,7.274A17.662,17.662,0,0,1,136.4,211.5q-6.416,1.069-10.231-.075a12.682,12.682,0,0,1-6.3-4.164,19.346,19.346,0,0,1-3.646-7.875l12.231-3.791a14.466,14.466,0,0,0,1.185,4.078,4.6,4.6,0,0,0,1.928,1.938,3.639,3.639,0,0,0,2.231.193,3.583,3.583,0,0,0,2.95-2.171q.754-1.8.109-5.672Z" transform="translate(-116.227 -160.102)" fill="#263238"/>
          <path id="Path_783" data-name="Path 783" d="M140.976,195.194l12.326-2.858a9.661,9.661,0,0,0,2.419,4.35,7.016,7.016,0,0,0,6.21,1.607,6.485,6.485,0,0,0,4.1-2.035,3.994,3.994,0,0,0,1.009-3.3,3.948,3.948,0,0,0-1.936-2.707q-1.664-1.058-7.117-1.338-8.936-.5-13.141-3.1a10.488,10.488,0,0,1-5.064-7.563,11.257,11.257,0,0,1,.863-6.485,12.734,12.734,0,0,1,4.933-5.518q3.522-2.293,10.141-3.4,8.123-1.355,12.89.954t6.676,8.765l-12.221,2.781a5.848,5.848,0,0,0-7.328-4.392,5.32,5.32,0,0,0-3.279,1.542,3.01,3.01,0,0,0-.763,2.548,2.392,2.392,0,0,0,1.257,1.663q1.066.684,4.653.826,8.893.42,12.923,1.693a13.091,13.091,0,0,1,6.188,3.795,12.064,12.064,0,0,1,2.737,5.989,13.631,13.631,0,0,1-1,7.891,14.316,14.316,0,0,1-5.431,6.269,25.811,25.811,0,0,1-9.906,3.478q-10.809,1.805-15.665-1.664A16.634,16.634,0,0,1,140.976,195.194Z" transform="translate(-100.402 -162.348)" fill="#263238"/>
        </g>
      </g>
    </g>
    <rect id="Rectangle_123" data-name="Rectangle 123" width="563.612" height="365.633" transform="translate(73.809 58.83)" fill="none"/>
  </g>
</svg>
